<svg version="1.1" viewBox="0 0 790 500" xmlns="http://www.w3.org/2000/svg">
 <g fill="none" stroke="#000" stroke-linecap="square" stroke-miterlimit="2" stroke-width="3">
  <path d="m428.88 456.93c74.841-7.2123 128.03-25.297 128.03-46.525m-399.79 0c0 21.993 57.059 40.623 136.18 47.27" opacity=".99" stroke-dasharray="24, 12" style="paint-order:markers stroke fill"/>
  <path d="m255.42 51.054v254.56h405.35v-254.56h-202.67v152.73h-101.34v-152.73z" opacity=".99" stroke-dasharray="6.00001, 12" style="paint-order:markers stroke fill"/>
  <g>
   <path d="m660.77 305.61v-254.56h-202.67m-101.34 101.82v-101.82h-101.34" opacity=".99" stroke-dashoffset="1.3494" style="paint-order:markers stroke fill"/>
   <path d="m154.08 152.88v254.56h405.35v-254.56h-202.67v152.73h-101.34v-152.73z" opacity=".99" stroke-dashoffset="1.3494" style="paint-order:markers stroke fill"/>
   <g>
    <path d="m559.43 407.44 101.34-101.82" opacity=".99" style="paint-order:markers stroke fill"/>
    <path d="m559.43 152.88 101.34-101.82" opacity=".99" style="paint-order:markers stroke fill"/>
    <path d="m356.76 152.88 101.34-101.82" opacity=".99" style="paint-order:markers stroke fill"/>
   </g>
  </g>
  <path d="m356.76 305.61 52.239-51.548m28.881-29.029 20.217-21.247" opacity=".99" stroke-dasharray="12, 12" style="paint-order:markers stroke fill"/>
  <g>
   <path d="m255.42 305.61 101.34-101.82" opacity=".99" style="paint-order:markers stroke fill"/>
   <path d="m255.42 152.88 101.34-101.82" opacity=".99" style="paint-order:markers stroke fill"/>
   <path d="m154.08 152.88 101.34-101.82" opacity=".99" style="paint-order:markers stroke fill"/>
  </g>
 </g>
 <g stroke-width="1.2251">
  <g transform="matrix(.81628 0 0 .81628 -179.24 -168.35)">
   <path d="m305.19 552.83c0-7.4658-5.1552-13.747-11.93-13.747-3.022 0-5.7182 1.0075-7.9797 3.2001v-12.246c1.2542 0.37481 3.3282 0.81978 5.3428 0.81978 7.723 0 12.118-5.7182 12.118-6.5285 0-0.37481-0.18766-0.69084-0.63206-0.69084-0.0593 0-0.18766 0-0.50369 0.18772-1.2542 0.56253-4.3355 1.8172-8.5328 1.8172-2.5184 0-5.4021-0.43485-8.355-1.7584-0.5037-0.18772-0.63209-0.18772-0.7506-0.18772-0.63206 0-0.63206 0.50375-0.63206 1.5112v18.586c0 1.1263 0 1.6294 0.87896 1.6294 0.44441 0 0.56292-0.18709 0.81973-0.56253 0.69128-1.0075 3.0121-4.3947 8.0982-4.3947 3.259 0 4.8293 2.8834 5.333 4.0192 1.0073 2.3209 1.1357 4.7701 1.1357 7.9108 0 2.192 0 5.9647-1.511 8.6016-1.5011 2.4492-3.8318 4.0787-6.7156 4.0787-4.5824 0-8.1674-3.3278-9.234-7.0316 0.18764 0.0594 0.37529 0.1283 1.0666 0.1283 2.074 0 3.1405-1.57 3.1405-3.0813 0-1.5106-1.0666-3.0813-3.1405-3.0813-0.87896 0-3.0714 0.44434-3.0714 3.3284 0 5.4022 4.3355 11.495 11.367 11.495 7.2786 0 13.688-6.0241 13.688-14.004"/>
   <path d="m326.69 551.77c0-10.232 5.1453-12.869 8.4735-12.869 0.56291 0 4.5231 0.0594 6.7154 2.3209-2.5675 0.18772-2.9428 2.0738-2.9428 2.8841 0 1.6389 1.1259 2.8936 2.8841 2.8936 1.6294 0 2.8834-1.0669 2.8834-2.953 0-4.2664-4.7701-6.7156-9.5994-6.7156-7.8514 0-13.629 6.775-13.629 14.567 0 8.0391 6.2218 14.251 13.5 14.251 8.4143 0 10.419-7.5354 10.419-8.1674 0-0.62257-0.62257-0.62257-0.80966-0.62257-0.56316 0-0.69147 0.24713-0.81978 0.62257-1.8172 5.8465-5.906 6.5968-8.2268 6.5968-3.3282 0-8.8488-2.6957-8.8488-12.809"/>
   <path d="m354.69 543.86v16.829c0 2.8247-0.69147 2.8247-4.8984 2.8247v1.9455c2.2021-0.0594 5.4022-0.18772 7.1005-0.18772 1.6294 0 4.8984 0.1283 7.0316 0.18772v-1.9455c-4.207 0-4.8984 0-4.8984-2.8247v-11.555c0-6.5279 4.4541-10.044 8.474-10.044 3.9598 0 4.6513 3.3878 4.6513 6.9722v14.626c0 2.8247-0.69147 2.8247-4.8984 2.8247v1.9455c2.1926-0.0594 5.4022-0.18772 7.091-0.18772 1.6389 0 4.8984 0.1283 7.0316 0.18772v-1.9455c-4.2076 0-4.8984 0-4.8984-2.8247v-11.555c0-6.5279 4.4636-10.044 8.4835-10.044 3.9504 0 4.6412 3.3878 4.6412 6.9722v14.626c0 2.8247-0.69083 2.8247-4.8984 2.8247v1.9455c2.2027-0.0594 5.4022-0.18772 7.1012-0.18772 1.6294 0 4.8984 0.1283 7.0316 0.18772v-1.9455c-3.269 0-4.8397 0-4.8984-1.8867v-11.989c0-5.4022 0-7.3476-1.9455-9.6092-0.87919-1.0669-2.953-2.3209-6.5974-2.3209-5.2739 0-8.0391 3.7626-9.1054 6.1524-0.87919-5.4616-5.521-6.1524-8.345-6.1524-4.5824 0-7.5354 2.6957-9.2931 6.5873v-6.5873l-8.8589 0.69083v1.9461c4.3947 0 4.8984 0.43422 4.8984 3.5155"/>
  </g>
  <g transform="matrix(.81628 0 0 .81628 69.2 -170.17)">
   <path d="m284.97 654.79 6.6563-6.459c9.7969-8.6712 13.57-12.058 13.57-18.34 0-7.1599-5.6589-12.177-13.313-12.177-7.1008 0-11.742 5.777-11.742 11.367 0 3.5161 3.1405 3.5161 3.3282 3.5161 1.0666 0 3.259-0.76099 3.259-3.3284 0-1.6396-1.1258-3.269-3.3282-3.269-0.4938 0-0.62218 0-0.80982 0.0594 1.4419-4.0787 4.8293-6.3996 8.4735-6.3996 5.7182 0 8.4142 5.0862 8.4142 10.231 0 5.0267-3.1405 9.9846-6.5971 13.876l-12.049 13.441c-0.69131 0.69147-0.69131 0.80967-0.69131 2.3209h23.297l1.7579-10.923h-1.5703c-0.31602 1.886-0.76042 4.6412-1.3826 5.5893-0.4444 0.49427-4.5824 0.49427-5.965 0.49427h-11.308"/>
   <path d="m326.69 645.94c0-10.232 5.1453-12.869 8.4735-12.869 0.56291 0 4.5231 0.0594 6.7154 2.3209-2.5675 0.18772-2.9428 2.0738-2.9428 2.8841 0 1.6389 1.1259 2.8936 2.8841 2.8936 1.6294 0 2.8834-1.0669 2.8834-2.953 0-4.2664-4.7701-6.7156-9.5994-6.7156-7.8514 0-13.629 6.775-13.629 14.567 0 8.0391 6.2218 14.251 13.5 14.251 8.4143 0 10.419-7.5354 10.419-8.1674 0-0.62257-0.62257-0.62257-0.80966-0.62257-0.56316 0-0.69147 0.24713-0.81978 0.62257-1.8172 5.8465-5.906 6.5968-8.2268 6.5968-3.3282 0-8.8488-2.6957-8.8488-12.809"/>
   <path d="m354.69 638.03v16.829c0 2.8247-0.69147 2.8247-4.8984 2.8247v1.9455c2.2021-0.0594 5.4022-0.18773 7.1005-0.18773 1.6294 0 4.8984 0.12831 7.0316 0.18773v-1.9455c-4.207 0-4.8984 0-4.8984-2.8247v-11.555c0-6.5279 4.4541-10.044 8.474-10.044 3.9598 0 4.6513 3.3878 4.6513 6.9722v14.626c0 2.8247-0.69147 2.8247-4.8984 2.8247v1.9455c2.1926-0.0594 5.4022-0.18773 7.091-0.18773 1.6389 0 4.8984 0.12831 7.0316 0.18773v-1.9455c-4.2076 0-4.8984 0-4.8984-2.8247v-11.555c0-6.5279 4.4636-10.044 8.4835-10.044 3.9504 0 4.6412 3.3878 4.6412 6.9722v14.626c0 2.8247-0.69083 2.8247-4.8984 2.8247v1.9455c2.2027-0.0594 5.4022-0.18773 7.1012-0.18773 1.6294 0 4.8984 0.12831 7.0316 0.18773v-1.9455c-3.269 0-4.8397 0-4.8984-1.8867v-11.989c0-5.4022 0-7.3477-1.9455-9.6092-0.87919-1.0669-2.953-2.3209-6.5974-2.3209-5.2739 0-8.0391 3.7626-9.1054 6.1524-0.87919-5.4616-5.521-6.1524-8.345-6.1524-4.5824 0-7.5354 2.6957-9.2931 6.5873v-6.5873l-8.8589 0.69083v1.9461c4.3947 0 4.8984 0.43423 4.8984 3.5155"/>
  </g>
  <g transform="matrix(.81628 0 0 .81628 387.18 -229.52)">
   <path d="m295.46 744.08v5.4616c0 2.2615-0.12837 2.953-4.77 2.953h-1.3234v1.9455c2.5776-0.18772 5.8465-0.18772 8.4834-0.18772s5.965 0 8.5328 0.18772v-1.9455h-1.3135c-4.6516 0-4.7701-0.69147-4.7701-2.953v-5.4616h6.2712v-1.9455h-6.2712v-28.571c0-1.254 0-1.6294-1.0074-1.6294-0.56291 0-0.75057 0-1.2542 0.75025l-19.278 29.45v1.9455zm0.37532-1.9455h-15.318l15.318-23.416z"/>
   <path d="m326.69 740.75c0-10.232 5.1453-12.869 8.4735-12.869 0.56291 0 4.5231 0.0594 6.7154 2.3209-2.5675 0.18772-2.9428 2.0738-2.9428 2.8841 0 1.6389 1.1259 2.8936 2.8841 2.8936 1.6294 0 2.8834-1.0669 2.8834-2.953 0-4.2664-4.7701-6.7156-9.5994-6.7156-7.8514 0-13.629 6.775-13.629 14.567 0 8.0391 6.2218 14.251 13.5 14.251 8.4143 0 10.419-7.5354 10.419-8.1674 0-0.62258-0.62257-0.62258-0.80966-0.62258-0.56316 0-0.69147 0.24714-0.81978 0.62258-1.8172 5.8465-5.906 6.5968-8.2268 6.5968-3.3282 0-8.8488-2.6957-8.8488-12.809"/>
   <path d="m354.69 732.84v16.828c0 2.8247-0.69147 2.8247-4.8984 2.8247v1.9455c2.2021-0.0594 5.4022-0.18772 7.1005-0.18772 1.6294 0 4.8984 0.12831 7.0316 0.18772v-1.9455c-4.207 0-4.8984 0-4.8984-2.8247v-11.555c0-6.5279 4.4541-10.044 8.474-10.044 3.9598 0 4.6513 3.3878 4.6513 6.9722v14.626c0 2.8247-0.69147 2.8247-4.8984 2.8247v1.9455c2.1926-0.0594 5.4022-0.18772 7.091-0.18772 1.6389 0 4.8984 0.12831 7.0316 0.18772v-1.9455c-4.2076 0-4.8984 0-4.8984-2.8247v-11.555c0-6.5279 4.4636-10.044 8.4835-10.044 3.9504 0 4.6412 3.3878 4.6412 6.9722v14.626c0 2.8247-0.69083 2.8247-4.8984 2.8247v1.9455c2.2027-0.0594 5.4022-0.18772 7.1012-0.18772 1.6294 0 4.8984 0.12831 7.0316 0.18772v-1.9455c-3.269 0-4.8397 0-4.8984-1.8867v-11.989c0-5.4022 0-7.3477-1.9455-9.6092-0.87919-1.0669-2.953-2.3209-6.5974-2.3209-5.2739 0-8.0391 3.7626-9.1054 6.1524-0.87919-5.4616-5.521-6.1524-8.345-6.1524-4.5824 0-7.5354 2.6957-9.2931 6.5873v-6.5873l-8.8589 0.69084v1.9461c4.3947 0 4.8984 0.43422 4.8984 3.5155"/>
  </g>
  <g transform="matrix(.81628 0 0 .81628 151.97 -440.35)">
   <path d="m295.21 826.52c5.1453-1.6983 8.7896-6.093 8.7896-11.051 0-5.1456-5.5305-8.6611-11.555-8.6611-6.3403 0-11.11 3.7626-11.11 8.5328 0 2.0738 1.3826 3.269 3.1998 3.269 1.9455 0 3.1998-1.3829 3.1998-3.2001 0-3.1407-2.9529-3.1407-3.8911-3.1407 1.9456-3.0813 6.0934-3.8909 8.355-3.8909 2.5677 0 6.0242 1.3829 6.0242 7.0316 0 0.75088-0.12837 4.3947-1.7579 7.1599-1.8863 3.0124-4.0195 3.2001-5.5898 3.2589-0.50363 0.0695-2.0048 0.18772-2.4492 0.18772-0.50363 0.0695-0.93816 0.12831-0.93816 0.76036 0 0.68199 0.43453 0.68199 1.5011 0.68199h2.7652c5.1453 0 7.476 4.2759 7.476 10.429 0 8.5328-4.3355 10.359-7.1008 10.359-2.6961 0-7.4069-1.0663-9.6092-4.7701 2.2024 0.30655 4.1479-1.0663 4.1479-3.4561 0-2.2621-1.6986-3.5161-3.5158-3.5161-1.511 0-3.5158 0.87919-3.5158 3.6444 0 5.7081 5.8367 9.8557 12.681 9.8557 7.6637 0 13.372-5.7176 13.372-12.117 0-5.1456-3.9504-10.044-10.478-11.368"/>
   <path d="m326.69 834.93c0-10.232 5.1453-12.869 8.4735-12.869 0.56291 0 4.5231 0.0594 6.7154 2.3209-2.5675 0.18772-2.9428 2.0738-2.9428 2.8841 0 1.6389 1.1259 2.8936 2.8841 2.8936 1.6294 0 2.8834-1.0669 2.8834-2.953 0-4.2664-4.7701-6.7156-9.5994-6.7156-7.8514 0-13.629 6.775-13.629 14.567 0 8.0391 6.2218 14.251 13.5 14.251 8.4143 0 10.419-7.5354 10.419-8.1674 0-0.62258-0.62257-0.62258-0.80966-0.62258-0.56316 0-0.69147 0.24714-0.81978 0.62258-1.8172 5.8465-5.906 6.5968-8.2268 6.5968-3.3282 0-8.8488-2.6957-8.8488-12.809"/>
   <path d="m354.69 827.02v16.828c0 2.8247-0.69147 2.8247-4.8984 2.8247v1.9455c2.2021-0.0594 5.4022-0.18772 7.1005-0.18772 1.6294 0 4.8984 0.12831 7.0316 0.18772v-1.9455c-4.207 0-4.8984 0-4.8984-2.8247v-11.555c0-6.5279 4.4541-10.044 8.474-10.044 3.9598 0 4.6513 3.3878 4.6513 6.9722v14.626c0 2.8247-0.69147 2.8247-4.8984 2.8247v1.9455c2.1926-0.0594 5.4022-0.18772 7.091-0.18772 1.6389 0 4.8984 0.12831 7.0316 0.18772v-1.9455c-4.2076 0-4.8984 0-4.8984-2.8247v-11.555c0-6.5279 4.4636-10.044 8.4835-10.044 3.9504 0 4.6412 3.3878 4.6412 6.9722v14.626c0 2.8247-0.69083 2.8247-4.8984 2.8247v1.9455c2.2027-0.0594 5.4022-0.18772 7.1012-0.18772 1.6294 0 4.8984 0.12831 7.0316 0.18772v-1.9455c-3.269 0-4.8397 0-4.8984-1.8867v-11.989c0-5.4022 0-7.3477-1.9455-9.6092-0.87919-1.0669-2.953-2.3209-6.5974-2.3209-5.2739 0-8.0391 3.7626-9.1054 6.1524-0.87919-5.4616-5.521-6.1524-8.345-6.1524-4.5824 0-7.5354 2.6957-9.2931 6.5873v-6.5873l-8.8589 0.69084v1.9461c4.3947 0 4.8984 0.43422 4.8984 3.5155"/>
  </g>
 </g>
 <g transform="translate(35.54 -389.88)">
  <path d="m285.67 842.89c-2.354-1.5398-2.5636-3.281-2.5636-4.1517 0-3.1279 3.3375-5.2803 6.9732-5.2803 3.7406 0 7.0216 2.6603 7.0216 6.3525 0 2.9264-1.9993 5.3851-5.0707 7.1748zm7.4811 4.8692c3.6922-1.9025 6.2074-4.5629 6.2074-7.9487 0-4.716-4.5628-7.6343-9.2305-7.6343-5.119 0-9.2708 3.789-9.2708 8.5614 0 0.91899 0.0967 3.2246 2.2492 5.635 0.56431 0.61267 2.4668 1.8944 3.7486 2.7651-2.9747 1.4914-7.3844 4.3613-7.3844 9.432 0 5.4335 5.2239 8.8677 10.609 8.8677 5.7882 0 10.657-4.2565 10.657-9.7383 0-1.8461-0.56428-4.1517-2.5071-6.3042-0.97549-1.0802-1.7977-1.5881-5.0788-3.6357zm-5.1191 2.1524 6.3041 3.9905c1.4349 0.97543 3.8453 2.5152 3.8453 5.6431 0 3.7889-3.8453 6.4573-8.0535 6.4573-4.4016 0-8.0938-3.1762-8.0938-7.4327 0-2.9747 1.6365-6.2557 5.9978-8.6581"/>
  <path d="m317.89 855.13c0-8.3517 4.2-10.504 6.9168-10.504 0.45949 0 3.6922 0.0483 5.4817 1.8944-2.0958 0.15318-2.4022 1.693-2.4022 2.354 0 1.3382 0.91904 2.3621 2.3542 2.3621 1.3301 0 2.3537-0.87065 2.3537-2.4104 0-3.4826-3.8937-5.4818-7.8358-5.4818-6.4089 0-11.125 5.5302-11.125 11.891 0 6.562 5.0788 11.633 11.02 11.633 6.8685 0 8.505-6.1509 8.505-6.6669 0-0.5079-0.50819-0.5079-0.66091-0.5079-0.4597 0-0.56443 0.20154-0.66917 0.5079-1.4833 4.7724-4.821 5.3851-6.7154 5.3851-2.7167 0-7.2231-2.2008-7.2231-10.456"/>
  <path d="m340.74 848.67v13.737c0 2.3056-0.56443 2.3056-3.9985 2.3056v1.5881c1.7975-0.0484 4.4097-0.15317 5.796-0.15317 1.3301 0 3.9985 0.1048 5.7398 0.15317v-1.5881c-3.4341 0-3.9985 0-3.9985-2.3056v-9.432c0-5.3287 3.6358-8.1986 6.9172-8.1986 3.2324 0 3.7968 2.7651 3.7968 5.6915v11.939c0 2.3056-0.56444 2.3056-3.9985 2.3056v1.5881c1.7898-0.0484 4.4097-0.15317 5.7883-0.15317 1.3378 0 3.9985 0.1048 5.7398 0.15317v-1.5881c-3.4346 0-3.9985 0-3.9985-2.3056v-9.432c0-5.3287 3.6436-8.1986 6.9249-8.1986 3.2246 0 3.7885 2.7651 3.7885 5.6915v11.939c0 2.3056-0.56391 2.3056-3.9985 2.3056v1.5881c1.798-0.0484 4.4097-0.15317 5.7966-0.15317 1.3301 0 3.9985 0.1048 5.7398 0.15317v-1.5881c-2.6684 0-3.9505 0-3.9985-1.5398v-9.7867c0-4.4096 0-5.9978-1.5881-7.8438-0.71767-0.87065-2.4105-1.8945-5.3854-1.8945-4.305 0-6.5622 3.0715-7.4326 5.0224-0.71767-4.458-4.5067-5.0224-6.8119-5.0224-3.7406 0-6.151 2.2008-7.5858 5.377v-5.377l-7.2314 0.56433v1.5881c3.5873 0 3.9985 0.3547 3.9985 2.8699"/>
 </g>
 <g fill="none" stroke="#000" stroke-dasharray="24, 12" stroke-linecap="square" stroke-miterlimit="2" stroke-width="3">
  <path d="m650.49 341.44c17.703-20.43 19.594-29.108 14.873-34.352m-103.13 99.617c4.8905 5.4326 23.753-4.1829 45.64-22.255" opacity=".99" style="paint-order:markers stroke fill"/>
  <path d="m106.31 315.81c7.2123 47.499 25.297 89.418 46.525 89.418m0-253.73c-21.993 0-42.383 44.306-49.03 94.519" opacity=".99" style="paint-order:markers stroke fill"/>
  <path d="m334.96 327.9c19.551-4.9864 23.399-10.056 23.399-24.733m-104.44 0c0 15.205 5.3169 25.014 25.985 29.61" opacity=".99" style="paint-order:markers stroke fill"/>
  <path d="m392.85 207.34c-5.3792-28.646-18.868-53.927-34.7-53.927m0 153.02c16.403 0 30.326-17.266 35.283-47.548" opacity=".99" style="paint-order:markers stroke fill"/>
 </g>
 <path d="m154.08 407.44 101.34-101.82" opacity=".99" stroke="#000" stroke-dasharray="6,12" stroke-linecap="square" stroke-miterlimit="2" stroke-width="3" style="paint-order:markers stroke fill"/>
</svg>
