<svg version="1.1" viewBox="0 0 793.7 500" xmlns="http://www.w3.org/2000/svg" xmlns:xlink="http://www.w3.org/1999/xlink">
 <defs>
  <pattern id="pattern32" patternTransform="matrix(14.142 14.142 -14.142 14.142 22.849 -29.901)" preserveAspectRatio="xMidYMid" xlink:href="#pattern31"/>
  <pattern id="pattern31" width="1.25" height="1" fill="#000000" patternTransform="translate(0) scale(2)" patternUnits="userSpaceOnUse" preserveAspectRatio="xMidYMid">
   <rect y="-.5" width="1" height="2"/>
  </pattern>
  <pattern id="pattern30" patternTransform="matrix(-14.142 14.142 -14.142 -14.142 22.849 -29.901)" preserveAspectRatio="xMidYMid" xlink:href="#Strips4_1-5"/>
  <pattern id="pattern24" patternTransform="matrix(0 27.528 -22.423 0 -58.806 -280.46)" preserveAspectRatio="xMidYMid" xlink:href="#Strips4_1"/>
  <pattern id="Strips4_1" width="1.25" height="1" fill="#000000" patternTransform="translate(0) scale(2)" patternUnits="userSpaceOnUse" preserveAspectRatio="xMidYMid">
   <rect y="-.5" width="1" height="2"/>
  </pattern>
  <pattern id="pattern16" patternTransform="matrix(3.0882 3.0882 -3.0882 3.0882 79.782 20.97)" preserveAspectRatio="xMidYMid" xlink:href="#Strips1_1.5"/>
  <pattern id="Strips1_1.5" width="2.5" height="1" fill="#000000" patternTransform="translate(0) scale(2)" patternUnits="userSpaceOnUse" preserveAspectRatio="xMidYMid">
   <rect y="-.5" width="1" height="2"/>
  </pattern>
  <pattern id="pattern24-0" patternTransform="matrix(22.236 0 0 15.218 74.968 609.28)" preserveAspectRatio="xMidYMid" xlink:href="#Strips4_1-8"/>
  <pattern id="Strips4_1-8" width="1.25" height="1" fill="#000000" patternTransform="translate(0) scale(2)" patternUnits="userSpaceOnUse" preserveAspectRatio="xMidYMid">
   <rect y="-.5" width="1" height="2"/>
  </pattern>
  <pattern id="pattern24-2" patternTransform="matrix(-10.668 -36.834 29.487 -8.343 1168.3 898.98)" preserveAspectRatio="xMidYMid" xlink:href="#Strips4_1-5"/>
  <pattern id="Strips4_1-5" width="1.25" height="1" fill="#000000" patternTransform="translate(0) scale(2)" patternUnits="userSpaceOnUse" preserveAspectRatio="xMidYMid">
   <rect y="-.5" width="1" height="2"/>
  </pattern>
 </defs>
 <g stroke="#000" stroke-linecap="square" stroke-miterlimit="2">
  <path d="m217.89 420.21 0.57515-264.6 313.72-95.399 107.94 358.94z" fill="none" opacity=".99" stroke-width="5.2707" style="paint-order:markers stroke fill"/>
  <path d="m640.13 419.15-313.8-296.03-107.86 32.495 210.83 263.54z" fill="url(#pattern16)" opacity=".99" stroke-width="5.2707" style="paint-order:markers stroke fill"/>
  <path d="m218.47 387.53h31.624v31.624" fill="none" opacity=".99" stroke-width="2.6354" style="paint-order:markers stroke fill"/>
  <path d="m499.27 69.574 10.16 30.264 31.17-9.6167" fill="none" opacity=".99" stroke-width="2.6354" style="paint-order:markers stroke fill"/>
 </g>
 <g transform="translate(18.14 -34.073)">
  <path d="m72.139 324.31c0-7.891-5.4488-14.53-12.609-14.53-3.1942 0-6.0438 1.0649-8.4341 3.3823v-12.943c1.3257 0.39616 3.5177 0.86646 5.6471 0.86646 8.1628 0 12.808-6.0438 12.808-6.9003 0-0.39616-0.19834-0.73018-0.66805-0.73018-0.0627 0-0.19834 0-0.53237 0.19841-1.3257 0.59456-4.5824 1.9206-9.0187 1.9206-2.6618 0-5.7098-0.45962-8.8308-1.8585-0.53239-0.19841-0.66809-0.19841-0.79335-0.19841-0.66805 0-0.66805 0.53243-0.66805 1.5973v19.645c0 1.1905 0 1.7222 0.92901 1.7222 0.46972 0 0.59498-0.19774 0.86641-0.59457 0.73065-1.0649 3.1837-4.645 8.5594-4.645 3.4446 0 5.1043 3.0476 5.6367 4.2481 1.0647 2.4531 1.2004 5.0418 1.2004 8.3613 0 2.3168 0 6.3044-1.597 9.0915-1.5866 2.5887-4.0501 4.3109-7.098 4.3109-4.8434 0-8.6325-3.5173-9.7598-7.4321 0.19833 0.0628 0.39666 0.13562 1.1273 0.13562 2.192 0 3.3194-1.6594 3.3194-3.2568 0-1.5966-1.1273-3.2568-3.3194-3.2568-0.92901 0-3.2463 0.46964-3.2463 3.518 0 5.7098 4.5824 12.15 12.014 12.15 7.6931 0 14.468-6.3672 14.468-14.801"/>
  <path d="m94.863 323.18c0-10.814 5.4383-13.602 8.9561-13.602 0.59496 0 4.7807 0.0628 7.0978 2.4531-2.7138 0.19841-3.1104 2.1919-3.1104 3.0483 0 1.7322 1.19 3.0583 3.0483 3.0583 1.7222 0 3.0476-1.1277 3.0476-3.1211 0-4.5093-5.0417-7.098-10.146-7.098-8.2985 0-14.405 7.1608-14.405 15.397 0 8.4969 6.5762 15.063 14.269 15.063 8.8935 0 11.013-7.9645 11.013-8.6326 0-0.65803-0.65803-0.65803-0.85577-0.65803-0.59523 0-0.73085 0.26121-0.86646 0.65803-1.9206 6.1795-6.2423 6.9724-8.6954 6.9724-3.5177 0-9.3527-2.8492-9.3527-13.538"/>
  <path d="m124.46 314.82v17.787c0 2.9855-0.73085 2.9855-5.1774 2.9855v2.0563c2.3275-0.0628 5.7098-0.19841 7.5049-0.19841 1.7222 0 5.1774 0.13561 7.4321 0.19841v-2.0563c-4.4465 0-5.1774 0-5.1774-2.9855v-12.213c0-6.8996 4.7078-10.616 8.9566-10.616 4.1853 0 4.9162 3.5808 4.9162 7.3693v15.459c0 2.9855-0.73085 2.9855-5.1774 2.9855v2.0563c2.3175-0.0628 5.7098-0.19841 7.4949-0.19841 1.7322 0 5.1774 0.13561 7.4321 0.19841v-2.0563c-4.4472 0-5.1774 0-5.1774-2.9855v-12.213c0-6.8996 4.7178-10.616 8.9666-10.616 4.1753 0 4.9055 3.5808 4.9055 7.3693v15.459c0 2.9855-0.73018 2.9855-5.1774 2.9855v2.0563c2.3282-0.0628 5.7098-0.19841 7.5056-0.19841 1.7222 0 5.1774 0.13561 7.4321 0.19841v-2.0563c-3.4552 0-5.1153 0-5.1774-1.9941v-12.672c0-5.7098 0-7.7661-2.0563-10.156-0.92926-1.1277-3.1211-2.4531-6.9731-2.4531-5.5742 0-8.4969 3.9769-9.6239 6.5028-0.92926-5.7726-5.8354-6.5028-8.8203-6.5028-4.8434 0-7.9645 2.8492-9.8223 6.9624v-6.9624l-9.3634 0.73018v2.0569c4.645 0 5.1774 0.45895 5.1774 3.7157"/>
 </g>
 <g>
  <path d="m169.16 92.588 7.0354-6.8268c10.355-9.165 14.342-12.745 14.342-19.384 0-7.5677-5.9811-12.87-14.071-12.87-7.5052 0-12.411 6.106-12.411 12.014 0 3.7164 3.3194 3.7164 3.5177 3.7164 1.1273 0 3.4446-0.80433 3.4446-3.518 0-1.7329-1.1899-3.4552-3.5177-3.4552-0.52191 0-0.65761 0-0.85594 0.0628 1.524-4.3109 5.1043-6.764 8.9561-6.764 6.0438 0 8.8934 5.3758 8.8934 10.814 0 5.313-3.3193 10.553-6.9728 14.666l-12.735 14.207c-0.73068 0.73085-0.73068 0.85578-0.73068 2.4531h24.624l1.858-11.545h-1.6597c-0.33402 1.9935-0.80373 4.9055-1.4614 5.9076-0.4697 0.52242-4.8434 0.52242-6.3047 0.52242h-11.952"/>
  <path d="m213.26 83.236c0-10.814 5.4383-13.602 8.9561-13.602 0.59496 0 4.7807 0.0628 7.0978 2.4531-2.7138 0.19841-3.1104 2.1919-3.1104 3.0483 0 1.7322 1.19 3.0583 3.0483 3.0583 1.7222 0 3.0476-1.1277 3.0476-3.1211 0-4.5093-5.0417-7.098-10.146-7.098-8.2985 0-14.405 7.1608-14.405 15.397 0 8.4969 6.5762 15.063 14.269 15.063 8.8935 0 11.013-7.9645 11.013-8.6326 0-0.65803-0.65803-0.65803-0.85577-0.65803-0.59523 0-0.73085 0.26121-0.86646 0.65803-1.9206 6.1795-6.2423 6.9724-8.6954 6.9724-3.5177 0-9.3527-2.8492-9.3527-13.538"/>
  <path d="m242.86 74.874v17.787c0 2.9855-0.73085 2.9855-5.1774 2.9855v2.0563c2.3275-0.0628 5.7098-0.19841 7.5049-0.19841 1.7222 0 5.1774 0.13562 7.4321 0.19841v-2.0563c-4.4465 0-5.1774 0-5.1774-2.9855v-12.213c0-6.8996 4.7078-10.616 8.9566-10.616 4.1853 0 4.9162 3.5808 4.9162 7.3693v15.459c0 2.9855-0.73085 2.9855-5.1774 2.9855v2.0563c2.3175-0.0628 5.7098-0.19841 7.4949-0.19841 1.7322 0 5.1774 0.13562 7.4321 0.19841v-2.0563c-4.4472 0-5.1774 0-5.1774-2.9855v-12.213c0-6.8996 4.7178-10.616 8.9666-10.616 4.1753 0 4.9055 3.5808 4.9055 7.3693v15.459c0 2.9855-0.73018 2.9855-5.1774 2.9855v2.0563c2.3282-0.0628 5.7098-0.19841 7.5056-0.19841 1.7222 0 5.1774 0.13562 7.4321 0.19841v-2.0563c-3.4552 0-5.1153 0-5.1774-1.9941v-12.672c0-5.7098 0-7.7661-2.0563-10.156-0.92926-1.1277-3.1211-2.4531-6.9731-2.4531-5.5742 0-8.4969 3.9769-9.6239 6.5028-0.92926-5.7726-5.8354-6.5028-8.8203-6.5028-4.8434 0-7.9645 2.8492-9.8223 6.9624v-6.9624l-9.3634 0.73018v2.0569c4.645 0 5.1774 0.45895 5.1774 3.7157"/>
 </g>
 <g transform="translate(28.834 -29.215)">
  <path d="m461.06 495.72v5.7726c0 2.3903-0.13568 3.1211-5.0416 3.1211h-1.3988v2.0563c2.7244-0.19841 6.1795-0.19841 8.9665-0.19841s6.3047 0 9.0187 0.19841v-2.0563h-1.3883c-4.9165 0-5.0417-0.73085-5.0417-3.1211v-5.7726h6.6283v-2.0563h-6.6283v-30.198c0-1.3254 0-1.7222-1.0647-1.7222-0.59497 0-0.79331 0-1.3256 0.79297l-20.376 31.127v2.0563zm0.39669-2.0563h-16.19l16.19-24.749z"/>
  <path d="m494.08 492.21c0-10.814 5.4383-13.602 8.9561-13.602 0.59496 0 4.7807 0.0628 7.0978 2.4531-2.7138 0.19841-3.1104 2.1919-3.1104 3.0483 0 1.7323 1.19 3.0583 3.0483 3.0583 1.7222 0 3.0476-1.1277 3.0476-3.1211 0-4.5094-5.0417-7.098-10.146-7.098-8.2985 0-14.405 7.1608-14.405 15.397 0 8.4969 6.5762 15.063 14.269 15.063 8.8935 0 11.013-7.9645 11.013-8.6326 0-0.65803-0.65803-0.65803-0.85577-0.65803-0.59523 0-0.73085 0.26121-0.86646 0.65803-1.9206 6.1795-6.2423 6.9724-8.6954 6.9724-3.5177 0-9.3527-2.8492-9.3527-13.538"/>
  <path d="m523.67 483.85v17.787c0 2.9855-0.73085 2.9855-5.1774 2.9855v2.0563c2.3275-0.0628 5.7098-0.19841 7.5049-0.19841 1.7222 0 5.1774 0.13562 7.4321 0.19841v-2.0563c-4.4465 0-5.1774 0-5.1774-2.9855v-12.213c0-6.8996 4.7078-10.616 8.9566-10.616 4.1853 0 4.9162 3.5808 4.9162 7.3693v15.459c0 2.9855-0.73085 2.9855-5.1774 2.9855v2.0563c2.3175-0.0628 5.7098-0.19841 7.4949-0.19841 1.7322 0 5.1774 0.13562 7.4321 0.19841v-2.0563c-4.4472 0-5.1774 0-5.1774-2.9855v-12.213c0-6.8996 4.7178-10.616 8.9666-10.616 4.1753 0 4.9055 3.5808 4.9055 7.3693v15.459c0 2.9855-0.73018 2.9855-5.1774 2.9855v2.0563c2.3282-0.0628 5.7098-0.19841 7.5056-0.19841 1.7222 0 5.1774 0.13562 7.4321 0.19841v-2.0563c-3.4552 0-5.1153 0-5.1774-1.9941v-12.672c0-5.7098 0-7.7661-2.0563-10.156-0.92926-1.1277-3.1211-2.4531-6.9731-2.4531-5.5742 0-8.4969 3.9769-9.6239 6.5028-0.92926-5.7726-5.8354-6.5028-8.8203-6.5028-4.8434 0-7.9645 2.8492-9.8223 6.9624v-6.9624l-9.3634 0.73018v2.0569c4.645 0 5.1774 0.45895 5.1774 3.7157"/>
 </g>
 <g transform="translate(16.075 -56.173)">
  <path d="m614.44 250.52c0.59497-0.79331 0.59497-0.92899 0.59497-2.3173h-16.117c-8.1001 0-8.2358-0.86633-8.4968-2.1294h-1.6597l-2.192 13.674h1.6597c0.19833-1.0647 0.79331-5.24 1.6597-6.0438 0.45928-0.39663 5.6367-0.39663 6.503-0.39663h13.737c-0.73065 1.0647-5.9707 8.2984-7.4321 10.49-5.9707 8.956-8.1627 18.183-8.1627 24.948 0 0.66805 0 3.6534 3.048 3.6534 3.0584 0 3.0584-2.9854 3.0584-3.6534v-3.382c0-3.6534 0.19834-7.2963 0.73071-10.887 0.26094-1.524 1.1899-7.2338 4.1126-11.346l8.9561-12.609"/>
  <path d="m635.38 276.47c0-10.814 5.4383-13.601 8.9561-13.601 0.59496 0 4.7807 0.0626 7.0978 2.453-2.7138 0.19834-3.1104 2.1921-3.1104 3.048 0 1.7328 1.19 3.0585 3.0483 3.0585 1.7222 0 3.0476-1.1273 3.0476-3.1211 0-4.5093-5.0417-7.098-10.146-7.098-8.2985 0-14.405 7.1606-14.405 15.396 0 8.4967 6.5762 15.062 14.269 15.062 8.8935 0 11.013-7.9644 11.013-8.6324 0-0.65763-0.65803-0.65763-0.85577-0.65763-0.59523 0-0.73085 0.26094-0.86646 0.65763-1.9206 6.1794-6.2423 6.9728-8.6954 6.9728-3.5177 0-9.3527-2.8496-9.3527-13.538"/>
  <path d="m664.97 268.11v17.787c0 2.9854-0.73085 2.9854-5.1774 2.9854v2.0564c2.3275-0.0626 5.7098-0.19833 7.5049-0.19833 1.7222 0 5.1774 0.1357 7.4321 0.19833v-2.0564c-4.4465 0-5.1774 0-5.1774-2.9854v-12.213c0-6.8998 4.7078-10.616 8.9566-10.616 4.1853 0 4.9162 3.5804 4.9162 7.3695v15.459c0 2.9854-0.73085 2.9854-5.1774 2.9854v2.0564c2.3175-0.0626 5.7098-0.19833 7.4949-0.19833 1.7322 0 5.1774 0.1357 7.4321 0.19833v-2.0564c-4.4472 0-5.1774 0-5.1774-2.9854v-12.213c0-6.8998 4.7178-10.616 8.9666-10.616 4.1753 0 4.9055 3.5804 4.9055 7.3695v15.459c0 2.9854-0.73018 2.9854-5.1774 2.9854v2.0564c2.3282-0.0626 5.7098-0.19833 7.5056-0.19833 1.7222 0 5.1774 0.1357 7.4321 0.19833v-2.0564c-3.4552 0-5.1153 0-5.1774-1.9937v-12.672c0-5.7097 0-7.7661-2.0563-10.156-0.92926-1.1273-3.1211-2.453-6.9731-2.453-5.5742 0-8.4969 3.977-9.6239 6.5031-0.92926-5.7724-5.8354-6.5031-8.8203-6.5031-4.8434 0-7.9645 2.8497-9.8223 6.9624v-6.9624l-9.3634 0.73071v2.0563c4.645 0 5.1774 0.45928 5.1774 3.716"/>
 </g>
 <g fill="none" stroke-linecap="square" stroke-miterlimit="2" stroke-width="3">
  <path d="m150.18 322.23c1.3479 7.66 6.2462 24.942 8.2832 31.995 12.125 41.104 34.532 66.424 58.781 66.424m0-265.69c-24.249-4.5e-4 -46.657 25.32-58.781 66.424-3.2263 11.09-5.9447 19.696-7.4308 32.122" opacity=".99" stroke="url(#pattern24)" style="paint-order:markers stroke fill"/>
  <path d="m605.99 462.65c25.251-1.7885 35.31-24.264 35.31-40.721m-214.62 0c-3.6e-4 16.457 15.942 38.062 35.242 42.093" opacity=".99" stroke="url(#pattern24-0)" style="paint-order:markers stroke fill"/>
  <path d="m661.29 184.28c-4.7411-9.748-19.235-45.026-24.647-53.705-31.874-50.488-71.153-76.032-103.04-67.009m102.97 355.52c31.889-9.0218 51.542-51.24 51.557-110.75-0.0551-16.039-0.90197-40.335-3.7632-57.514" opacity=".99" stroke="url(#pattern24-2)" style="paint-order:markers stroke fill"/>
  <path d="m324.01 121.03c-2.9165-9.6493-13.439-31.597-31.254-31.478" opacity=".99" stroke="url(#pattern32)" style="paint-order:markers stroke fill"/>
  <path d="m235.5 109.5c-14.898 9.7685-20.125 33.842-17.208 43.491" opacity=".99" stroke="url(#pattern30)" style="paint-order:markers stroke fill"/>
 </g>
</svg>
