<svg version="1.1" viewBox="0 0 790 400" xmlns="http://www.w3.org/2000/svg" xmlns:xlink="http://www.w3.org/1999/xlink">
 <defs>
  <pattern id="pattern19" patternTransform="matrix(2.8284 2.8284 -2.8284 2.8284 35.911 2.5434)" preserveAspectRatio="xMidYMid" xlink:href="#Strips1_1.5"/>
  <pattern id="Strips1_1.5" width="2.5" height="1" fill="#000000" patternTransform="translate(0) scale(2)" patternUnits="userSpaceOnUse" preserveAspectRatio="xMidYMid">
   <rect y="-.5" width="1" height="2"/>
  </pattern>
 </defs>
 <g fill="none" stroke="#000" stroke-linecap="square" stroke-miterlimit="2" stroke-width="3">
  <path d="m158.77 355.55 274.47 0.75015 274.47-0.75015" opacity=".99" style="paint-order:markers stroke fill"/>
  <path d="m433.25 78.925a274.47 277.37 0 0 0 274.47 277.37v-277.37z" opacity=".99" style="paint-order:markers stroke fill"/>
  <path d="m433.25 78.925a274.47 277.37 0 0 1-274.47 277.37v-277.37z" opacity=".99" style="paint-order:markers stroke fill"/>
 </g>
 <path d="m286.75 353.13c-21.617-0.56327-43.353 0.0207-64.884-1.9487 80.343-18.886 150.58-75.838 185.96-150.41 12.732-26.381 20.961-54.991 25.062-83.889 6.7061 36.561 17.432 72.86 36.915 104.83 38.552 65.008 103.87 114.3 178.09 130.25 4.7314 1.3864-9.9847 0.38874-13.336 0.78426-115.93 1.2384-231.87 2.3468-347.81 0.37688z" fill="url(#pattern19)" opacity=".99" stroke="#000" stroke-linecap="square" stroke-miterlimit="2" stroke-width="3" style="paint-order:markers stroke fill"/>
 <g transform="matrix(3.7726 0 0 3.7726 249.54 21.812)" stroke-width=".26507">
  <g stroke-width=".26507">
   <path transform="matrix(.13333 0 0 -.13333 0 9.3333)" d="m27.203 17.391v-8.6406c0-3.5781-0.2031-4.6719-7.5468-4.6719h-2.0938v-3.0781c4.0781 0.29688 9.25 0.29688 13.422 0.29688s9.4375 0 13.5-0.29688v3.0781h-2.0781c-7.3594 0-7.5469 1.0938-7.5469 4.6719v8.6406h9.9219v3.0782h-9.9219v45.203c0 1.9844 0 2.5781-1.5938 2.5781-0.8906 0-1.1875 0-1.9843-1.1875l-30.5-46.594v-3.0782zm0.5938 3.0782h-24.234l24.234 37.047z"/>
   <path transform="matrix(.13333 0 0 -.13333 0 9.3333)" d="m76.625 22.656c0 16.188 8.1406 20.359 13.406 20.359 0.8906 0 7.1562-0.0937 10.625-3.6718-4.0622-0.2969-4.656-3.2813-4.656-4.5625 0-2.5938 1.7813-4.5782 4.563-4.5782 2.578 0 4.562 1.6875 4.562 4.6719 0 6.75-7.5469 10.625-15.188 10.625-12.422 0-21.562-10.719-21.562-23.047 0-12.719 9.8438-22.547 21.359-22.547 13.313 0 16.485 11.922 16.485 12.922 0 0.9844-0.985 0.9844-1.281 0.9844-0.891 0-1.094-0.3906-1.297-0.9844-2.875-9.25-9.3441-10.437-13.016-10.437-5.2656 0-14 4.2656-14 20.266"/>
   <path transform="matrix(.13333 0 0 -.13333 0 9.3333)" d="m120.92 35.172v-26.625c0-4.4688-1.094-4.4688-7.75-4.4688v-3.0781c3.484 0.09375 8.547 0.29688 11.234 0.29688 2.578 0 7.75-0.20313 11.125-0.29688v3.0781c-6.656 0-7.75 0-7.75 4.4688v18.281c0 10.328 7.047 15.891 13.407 15.891 6.265 0 7.359-5.3594 7.359-11.031v-23.141c0-4.4688-1.094-4.4688-7.75-4.4688v-3.0781c3.469 0.09375 8.547 0.29688 11.219 0.29688 2.593 0 7.75-0.20313 11.125-0.29688v3.0781c-6.657 0-7.75 0-7.75 4.4688v18.281c0 10.328 7.062 15.891 13.422 15.891 6.25 0 7.343-5.3594 7.343-11.031v-23.141c0-4.4688-1.093-4.4688-7.75-4.4688v-3.0781c3.485 0.09375 8.547 0.29688 11.235 0.29688 2.578 0 7.75-0.20313 11.125-0.29688v3.0781c-5.172 0-7.657 0-7.75 2.9844v18.969c0 8.5468 0 11.625-3.078 15.203-1.391 1.6875-4.672 3.6719-10.438 3.6719-8.344 0-12.719-5.9532-14.406-9.7344-1.391 8.6406-8.735 9.7344-13.203 9.7344-7.25 0-11.922-4.2657-14.703-10.422v10.422l-14.016-1.0938v-3.0781c6.953 0 7.75-0.6875 7.75-5.5625"/>
  </g>
 </g>
 <path d="m238.75 44.211c-46.556 5.5228-78.924 17.565-78.924 31.574m271.75 0c0-13.687-30.904-25.494-75.738-31.182" fill="none" opacity=".99" stroke="#000" stroke-dasharray="24, 12" stroke-dashoffset="5.1" stroke-linecap="square" stroke-miterlimit="2" stroke-width="3" style="paint-order:markers stroke fill"/>
 <g transform="matrix(3.7726 0 0 3.7726 525.14 21.812)" stroke-width=".26507">
  <g stroke-width=".26507">
   <path transform="matrix(.13333 0 0 -.13333 0 9.3333)" d="m27.203 17.391v-8.6406c0-3.5781-0.2031-4.6719-7.5468-4.6719h-2.0938v-3.0781c4.0781 0.29688 9.25 0.29688 13.422 0.29688s9.4375 0 13.5-0.29688v3.0781h-2.0781c-7.3594 0-7.5469 1.0938-7.5469 4.6719v8.6406h9.9219v3.0782h-9.9219v45.203c0 1.9844 0 2.5781-1.5938 2.5781-0.8906 0-1.1875 0-1.9843-1.1875l-30.5-46.594v-3.0782zm0.5938 3.0782h-24.234l24.234 37.047z"/>
   <path transform="matrix(.13333 0 0 -.13333 0 9.3333)" d="m76.625 22.656c0 16.188 8.1406 20.359 13.406 20.359 0.8906 0 7.1562-0.0937 10.625-3.6718-4.0622-0.2969-4.656-3.2813-4.656-4.5625 0-2.5938 1.7813-4.5782 4.563-4.5782 2.578 0 4.562 1.6875 4.562 4.6719 0 6.75-7.5469 10.625-15.188 10.625-12.422 0-21.562-10.719-21.562-23.047 0-12.719 9.8438-22.547 21.359-22.547 13.313 0 16.485 11.922 16.485 12.922 0 0.9844-0.985 0.9844-1.281 0.9844-0.891 0-1.094-0.3906-1.297-0.9844-2.875-9.25-9.3441-10.437-13.016-10.437-5.2656 0-14 4.2656-14 20.266"/>
   <path transform="matrix(.13333 0 0 -.13333 0 9.3333)" d="m120.92 35.172v-26.625c0-4.4688-1.094-4.4688-7.75-4.4688v-3.0781c3.484 0.09375 8.547 0.29688 11.234 0.29688 2.578 0 7.75-0.20313 11.125-0.29688v3.0781c-6.656 0-7.75 0-7.75 4.4688v18.281c0 10.328 7.047 15.891 13.407 15.891 6.265 0 7.359-5.3594 7.359-11.031v-23.141c0-4.4688-1.094-4.4688-7.75-4.4688v-3.0781c3.469 0.09375 8.547 0.29688 11.219 0.29688 2.593 0 7.75-0.20313 11.125-0.29688v3.0781c-6.657 0-7.75 0-7.75 4.4688v18.281c0 10.328 7.062 15.891 13.422 15.891 6.25 0 7.343-5.3594 7.343-11.031v-23.141c0-4.4688-1.093-4.4688-7.75-4.4688v-3.0781c3.485 0.09375 8.547 0.29688 11.235 0.29688 2.578 0 7.75-0.20313 11.125-0.29688v3.0781c-5.172 0-7.657 0-7.75 2.9844v18.969c0 8.5468 0 11.625-3.078 15.203-1.391 1.6875-4.672 3.6719-10.438 3.6719-8.344 0-12.719-5.9532-14.406-9.7344-1.391 8.6406-8.735 9.7344-13.203 9.7344-7.25 0-11.922-4.2657-14.703-10.422v10.422l-14.016-1.0938v-3.0781c6.953 0 7.75-0.6875 7.75-5.5625"/>
  </g>
 </g>
 <path d="m514.35 44.211c-46.556 5.5228-78.924 17.565-78.924 31.574m271.75 0c0-13.687-30.904-25.494-75.738-31.182" fill="none" opacity=".99" stroke="#000" stroke-dasharray="24, 12" stroke-dashoffset="5.1" stroke-linecap="square" stroke-miterlimit="2" stroke-width="3" style="paint-order:markers stroke fill"/>
 <path d="m117.45 249.83c1.6752 46.556 23.926 104.55 37.935 104.55m0-271.75c-13.687 0-36.932 56.905-36.808 97.277" fill="none" opacity=".99" stroke="#000" stroke-dasharray="24, 12" stroke-dashoffset="5.1" stroke-linecap="square" stroke-miterlimit="2" stroke-width="3" style="paint-order:markers stroke fill"/>
 <g transform="matrix(3.7726 0 0 3.7726 42.615 191.88)" stroke-width=".26507">
  <g stroke-width=".26507">
   <path transform="matrix(.13333 0 0 -.13333 0 9.3333)" d="m27.203 17.391v-8.6406c0-3.5781-0.2031-4.6719-7.5468-4.6719h-2.0938v-3.0781c4.0781 0.29688 9.25 0.29688 13.422 0.29688s9.4375 0 13.5-0.29688v3.0781h-2.0781c-7.3594 0-7.5469 1.0938-7.5469 4.6719v8.6406h9.9219v3.0782h-9.9219v45.203c0 1.9844 0 2.5781-1.5938 2.5781-0.8906 0-1.1875 0-1.9843-1.1875l-30.5-46.594v-3.0782zm0.5938 3.0782h-24.234l24.234 37.047z"/>
   <path transform="matrix(.13333 0 0 -.13333 0 9.3333)" d="m76.625 22.656c0 16.188 8.1406 20.359 13.406 20.359 0.8906 0 7.1562-0.0937 10.625-3.6718-4.0622-0.2969-4.656-3.2813-4.656-4.5625 0-2.5938 1.7813-4.5782 4.563-4.5782 2.578 0 4.562 1.6875 4.562 4.6719 0 6.75-7.5469 10.625-15.188 10.625-12.422 0-21.562-10.719-21.562-23.047 0-12.719 9.8438-22.547 21.359-22.547 13.313 0 16.485 11.922 16.485 12.922 0 0.9844-0.985 0.9844-1.281 0.9844-0.891 0-1.094-0.3906-1.297-0.9844-2.875-9.25-9.3441-10.437-13.016-10.437-5.2656 0-14 4.2656-14 20.266"/>
   <path transform="matrix(.13333 0 0 -.13333 0 9.3333)" d="m120.92 35.172v-26.625c0-4.4688-1.094-4.4688-7.75-4.4688v-3.0781c3.484 0.09375 8.547 0.29688 11.234 0.29688 2.578 0 7.75-0.20313 11.125-0.29688v3.0781c-6.656 0-7.75 0-7.75 4.4688v18.281c0 10.328 7.047 15.891 13.407 15.891 6.265 0 7.359-5.3594 7.359-11.031v-23.141c0-4.4688-1.094-4.4688-7.75-4.4688v-3.0781c3.469 0.09375 8.547 0.29688 11.219 0.29688 2.593 0 7.75-0.20313 11.125-0.29688v3.0781c-6.657 0-7.75 0-7.75 4.4688v18.281c0 10.328 7.062 15.891 13.422 15.891 6.25 0 7.343-5.3594 7.343-11.031v-23.141c0-4.4688-1.093-4.4688-7.75-4.4688v-3.0781c3.485 0.09375 8.547 0.29688 11.235 0.29688 2.578 0 7.75-0.20313 11.125-0.29688v3.0781c-5.172 0-7.657 0-7.75 2.9844v18.969c0 8.5468 0 11.625-3.078 15.203-1.391 1.6875-4.672 3.6719-10.438 3.6719-8.344 0-12.719-5.9532-14.406-9.7344-1.391 8.6406-8.735 9.7344-13.203 9.7344-7.25 0-11.922-4.2657-14.703-10.422v10.422l-14.016-1.0938v-3.0781c6.953 0 7.75-0.6875 7.75-5.5625"/>
  </g>
 </g>
</svg>
