<svg version="1.1" viewBox="0 0 793 800" xmlns="http://www.w3.org/2000/svg" xmlns:xlink="http://www.w3.org/1999/xlink">
 <defs>
  <pattern id="pattern25" patternTransform="matrix(-1.4142 -1.4142 1.4142 -1.4142 522.37 442.5)" preserveAspectRatio="xMidYMid" xlink:href="#pattern16"/>
  <pattern id="pattern24" patternTransform="matrix(-1.4142 -1.4142 1.4142 -1.4142 522.37 262.5)" preserveAspectRatio="xMidYMid" xlink:href="#pattern13"/>
  <pattern id="pattern23" patternTransform="matrix(-1.4142 -1.4142 1.4142 -1.4142 522.37 92.5)" preserveAspectRatio="xMidYMid" xlink:href="#pattern12"/>
  <pattern id="pattern22" patternTransform="matrix(-1.4142 -1.4142 1.4142 -1.4142 272.37 -37.5)" preserveAspectRatio="xMidYMid" xlink:href="#pattern14"/>
  <pattern id="pattern21" patternTransform="matrix(-1.4142 -1.4142 1.4142 -1.4142 272.37 92.5)" preserveAspectRatio="xMidYMid" xlink:href="#pattern11"/>
  <pattern id="pattern18" patternTransform="matrix(-1.4142 -1.4142 1.4142 -1.4142 522.37 574.3)" preserveAspectRatio="xMidYMid" xlink:href="#pattern16"/>
  <pattern id="pattern17" patternTransform="matrix(-1.4142 -1.4142 1.4142 -1.4142 272.37 213.3)" preserveAspectRatio="xMidYMid" xlink:href="#pattern14"/>
  <pattern id="pattern16" patternTransform="matrix(-1.4142 -1.4142 1.4142 -1.4142 400 600)" preserveAspectRatio="xMidYMid" xlink:href="#pattern13"/>
  <pattern id="pattern14" patternTransform="matrix(-1.4142 -1.4142 1.4142 -1.4142 0 0)" preserveAspectRatio="xMidYMid" xlink:href="#pattern11"/>
  <pattern id="pattern13" patternTransform="matrix(-1.4142 -1.4142 1.4142 -1.4142 400 300)" preserveAspectRatio="xMidYMid" xlink:href="#pattern12"/>
  <pattern id="pattern12" patternTransform="matrix(-1.4142 -1.4142 1.4142 -1.4142 400 0)" preserveAspectRatio="xMidYMid" xlink:href="#pattern11"/>
  <pattern id="pattern11" patternTransform="matrix(-1.4142 -1.4142 1.4142 -1.4142 0 0)" preserveAspectRatio="xMidYMid" xlink:href="#Strips1_1.5"/>
  <pattern id="Strips1_1.5" width="2.5" height="1" fill="#000000" patternTransform="translate(0) scale(2)" patternUnits="userSpaceOnUse" preserveAspectRatio="xMidYMid">
   <rect y="-.5" width="1" height="2"/>
  </pattern>
 </defs>
 <g stroke-miterlimit="2">
  <path d="m43.697 637.07c0.912 1.536 1.488 3.12 2.832 3.12 1.152 0 1.728-1.008 1.488-2.352-0.768-3.936-5.568-7.392-10.416-9.312l-0.672 0.864c3.408 2.4 5.52 5.424 6.768 7.68zm-24.432-7.968c-0.912 2.688-2.16 5.184-5.616 7.824-1.488 1.152-2.448 1.44-2.448 2.64 0 0.912 0.576 1.68 1.68 1.68 3.408 0 7.104-6.624 7.632-11.856zm-8.448-8.976c0.096 0.912 0.288 2.064 0.576 2.64 0.816 1.536 2.592 2.928 3.648 2.928s1.536-0.864 3.456-1.248c2.496-0.576 6.72-1.104 9.84-1.488v3.984c0 4.08 0 11.904-0.144 14.112-0.048 0.672-0.48 0.72-1.008 0.624-1.248-0.288-3.072-0.912-4.656-1.44l-0.48 1.008c1.536 0.864 3.168 2.016 4.032 2.976 1.056 1.296 1.008 2.256 2.352 2.256 1.632 0 2.736-2.112 2.736-4.176 0-1.296-0.24-11.712-0.24-15.312l0.048-4.368c3.216-0.336 7.2-0.768 9.12-0.768 2.112 0 3.456 0.144 4.896 0.144 1.2 0 1.68-0.336 1.68-1.392 0-1.104-2.4-2.208-4.176-2.208-1.056 0-1.536 0.768-11.472 2.016 0.048-2.112 0.096-4.032 0.192-5.184 0.096-1.344 1.056-1.44 1.056-2.304 0-1.104-2.496-2.688-4.464-2.784-1.008 0-2.496 0.24-3.6 0.48l0.048 1.056c2.496 0.336 3.6 0.624 3.792 2.112 0.144 1.104 0.192 3.984 0.24 6.912-3.552 0.432-11.424 1.44-13.632 1.488-1.056 0.048-2.064-1.2-2.976-2.448zm60.97 1.968c0.96 1.104 1.824 2.64 2.496 3.936 1.152 2.352 1.152 4.32 2.592 4.32 0.912 0 1.584-0.576 1.584-1.632 0-1.728-1.008-3.312-2.544-4.608-1.056-1.008-2.16-1.776-3.552-2.544zm-4.656 25.968c11.568-4.416 18.528-12.72 22.08-20.496 0.528-1.104 1.344-1.488 1.344-2.256 0-1.2-2.304-3.312-4.08-3.6-0.768-0.144-1.632-0.048-2.256 0l-0.24 0.72c1.872 0.768 2.544 1.344 2.544 2.112 0 3.648-7.248 16.032-19.968 22.656zm-3.792-23.472c0.912 1.152 1.776 2.496 2.544 4.08 1.344 2.592 1.392 4.464 2.928 4.464 1.008 0 1.488-0.72 1.488-1.728 0-1.536-1.056-3.216-3.024-4.896-0.816-0.768-2.064-1.776-3.36-2.448zm53.338-14.736 0.048 1.008c2.544 0.288 3.6 0.576 3.744 2.112 0.288 2.4 0.288 7.632 0.288 11.472 0 3.648 0 11.52-0.384 15.072-0.192 1.824-0.624 2.688-0.624 3.744 0 1.632 0.816 4.272 2.4 4.272 1.056 0 1.536-0.576 1.536-1.824 0-0.816-0.096-2.256-0.144-4.368-0.048-5.088 0-12.96 0.048-16.272 3.264 1.248 5.856 2.64 8.016 4.128 2.88 2.208 3.408 3.84 4.992 3.84 1.008 0 1.536-0.816 1.536-1.632 0-1.488-1.248-2.688-2.688-3.6-2.64-1.68-7.2-3.36-11.856-4.416 0.048-2.592 0.144-6.144 0.384-8.448 0.192-1.584 1.056-1.776 1.056-2.736 0-1.104-3.264-2.928-5.28-2.928-0.912 0-1.824 0.288-3.072 0.576zm42.97 37.392c9.504-5.136 15.12-12.528 17.952-20.064 0.384-1.056 1.2-1.392 1.2-2.208s-1.44-2.016-3.408-2.832c2.64-0.336 5.376-0.624 7.008-0.72 2.208-0.144 5.184-0.096 6.624-0.096 1.632 0 1.872-0.48 1.872-1.296 0-1.2-2.256-2.256-3.888-2.256-0.912 0-1.2 0.624-3.312 0.912-2.64 0.432-13.632 1.92-16.368 1.92-0.576 0-1.104-0.096-1.728-0.288 1.296-1.872 2.448-3.792 3.504-5.808 0.576-0.96 1.584-1.2 1.584-2.064s-1.68-2.4-3.024-3.072c-0.768-0.432-2.016-0.816-3.264-1.008l-0.48 0.768c1.44 1.152 2.208 1.92 2.208 2.976 0 2.928-5.424 12.336-13.056 18.72l0.816 0.912c4.608-3.072 7.92-6.336 10.56-9.84 0.816 0.72 1.776 1.392 2.448 1.392 0.912 0 2.064-0.336 3.264-0.48l2.688-0.384c1.008 0.624 1.68 1.344 1.68 2.304 0 4.704-6.384 15.36-15.744 21.6zm42.25-21.888-0.96 0.288c0.048 0.96 0.096 1.776 0.432 2.688 0.672 1.632 2.928 3.984 4.272 3.984 1.392 0 1.92-0.72 4.656-1.008 3.6-0.432 17.088-1.152 20.112-1.152 2.928 0 4.608 0.096 6.288 0.096 1.632 0 2.112-0.528 2.112-1.392 0-1.296-2.16-2.112-3.984-2.112-1.248 0-2.592 0.288-5.808 0.528-2.208 0.096-19.008 1.2-23.28 1.2-2.016 0-2.784-1.488-3.84-3.12zm48.01 6.72c0.288 1.056 0.528 1.824 0.912 2.304 0.768 0.96 2.784 2.16 3.792 2.112 1.056 0 1.536-0.72 3.312-1.344 2.544-0.912 7.008-2.16 10.416-3.024l1.152 6.336c0.48 2.688 0.816 5.664 1.056 6.48 0.288 1.248 1.392 2.736 2.4 2.736 0.96 0 1.296-0.768 1.296-1.488 0-1.248-0.384-2.352-0.912-4.512-0.48-1.872-1.344-5.664-2.352-10.176 7.248-1.68 10.224-2.208 14.592-2.64 1.248-0.096 1.536-0.72 1.536-1.344 0-1.056-1.968-1.824-4.128-1.68-0.432 0.048-0.672 0.288-2.016 0.672-1.632 0.528-6.72 1.872-10.512 2.736l-1.68-8.016c2.928-0.672 7.488-1.632 10.128-2.16 1.2-0.24 1.92-0.672 1.92-1.488 0-1.152-2.208-1.584-3.6-1.488-0.432 0.048-1.2 0.576-3.216 1.248-1.728 0.528-3.648 1.056-5.712 1.584-0.384-2.016-0.624-3.216-0.816-4.752-0.144-1.488 0.576-1.824 0.528-2.736-0.048-1.008-2.688-2.16-4.752-2.16-0.768 0-2.496 0.48-3.744 0.96l0.144 1.008c1.68 0.288 3.6 0.192 4.128 1.2 0.528 0.96 1.248 4.176 1.92 7.104-3.936 0.912-9.072 2.016-10.128 2.016-1.104 0-1.776-0.864-2.544-1.632l-0.816 0.384c0.192 1.008 0.336 1.536 0.768 2.112 0.672 0.96 2.784 2.208 3.744 2.208 0.864 0 1.152-0.528 2.496-0.96 1.872-0.576 4.416-1.248 7.008-1.824l1.68 8.064c-4.8 1.248-13.104 3.216-14.496 3.216-0.72 0-1.44-0.48-2.688-1.584z" opacity=".99" stroke-linecap="square" stroke-width="5" style="paint-order:markers stroke fill" aria-label="ホットケーキ"/>
  <circle cx="392.37" cy="212.5" r="60" fill="none" opacity=".99" stroke="#000" stroke-linecap="square" stroke-width="5" style="paint-order:markers stroke fill"/>
  <path d="m392.37 152.5a60 60 0 0 1 60 60 60 60 0 0 1-60 60v-60z" fill="url(#pattern21)" opacity=".99" stroke-width="0" style="paint-order:markers stroke fill"/>
  <circle cx="642.37" cy="212.5" r="60" fill="none" opacity=".99" stroke="#000" stroke-linecap="square" stroke-width="5" style="paint-order:markers stroke fill"/>
  <path d="m642.37 152.5a60 60 0 0 1 55.433 37.039 60 60 0 0 1-13.006 65.387 60 60 0 0 1-65.387 13.006 60 60 0 0 1-37.039-55.433h60z" fill="url(#pattern23)" opacity=".99" stroke-width="0" style="paint-order:markers stroke fill"/>
  <circle cx="392.37" cy="382.5" r="60" fill="none" opacity=".99" stroke="#000" stroke-linecap="square" stroke-width="5" style="paint-order:markers stroke fill"/>
  <path d="m392.37 322.5a60 60 0 0 1 55.433 37.039 60 60 0 0 1-13.006 65.387 60 60 0 0 1-65.387 13.006 60 60 0 0 1-37.039-55.433h60z" fill="url(#pattern22)" opacity=".99" stroke-width="0" style="paint-order:markers stroke fill"/>
  <circle cx="642.37" cy="382.5" r="60" fill="none" opacity=".99" stroke="#000" stroke-linecap="square" stroke-width="5" style="paint-order:markers stroke fill"/>
  <path d="m642.37 322.5a60 60 0 0 1 45.963 21.433l-45.963 38.567z" fill="url(#pattern24)" opacity=".99" stroke-width="0" style="paint-order:markers stroke fill"/>
  <circle cx="392.37" cy="633.3" r="60" fill="none" opacity=".99" stroke="#000" stroke-linecap="square" stroke-width="5" style="paint-order:markers stroke fill"/>
  <path d="m392.37 573.3a60 60 0 0 1 57.063 41.459 60 60 0 0 1-21.796 67.082 60 60 0 0 1-70.534 0l35.267-48.541z" fill="url(#pattern17)" opacity=".99" stroke-width="0" style="paint-order:markers stroke fill"/>
  <circle cx="642.37" cy="562.5" r="60" fill="none" opacity=".99" stroke="#000" stroke-linecap="square" stroke-width="5" style="paint-order:markers stroke fill"/>
  <circle cx="642.37" cy="562.5" r="60" fill="url(#pattern25)" opacity=".99" stroke-width="0" style="paint-order:markers stroke fill"/>
  <circle cx="642.37" cy="694.3" r="60" fill="none" opacity=".99" stroke="#000" stroke-linecap="square" stroke-width="5" style="paint-order:markers stroke fill"/>
  <path d="m642.37 634.3a60 60 0 0 1 35.267 11.459l-35.267 48.541z" fill="url(#pattern18)" opacity=".99" stroke-width="0" style="paint-order:markers stroke fill"/>
 </g>
 <g transform="translate(-360.38 -22.478)">
  <path d="m857.87 179.4c0-1.2737 0-1.3826-1.2234-1.3826-3.3017 3.4104-7.9943 3.4104-9.6954 3.4104v1.6508c1.0642 0 4.2066 0 6.9804-1.3826v27.595c0 1.9189-0.15922 2.556-4.9608 2.556h-1.7011v1.6508c1.8603-0.15929 6.5027-0.15929 8.6312-0.15929 2.1284 0 6.7624 0 8.6311 0.15929v-1.6508h-1.7095c-4.7932 0-4.9525-0.58672-4.9525-2.556v-29.89"/>
  <rect transform="scale(1,-1)" x="842.36" y="-237.16" width="27.03" height="2.5743" stroke-width="8.3416"/>
  <path d="m848.97 281.8 5.6479-5.4804c8.3127-7.3575 11.514-10.232 11.514-15.561 0-6.0754-4.8016-10.332-11.296-10.332-6.0251 0-9.9636 4.9022-9.9636 9.6451 0 2.9832 2.6648 2.9832 2.824 2.9832 0.90502 0 2.7653-0.64523 2.7653-2.824 0-1.3911-0.95526-2.7737-2.824-2.7737-0.41899 0-0.52792 0-0.68714 0.0503 1.2234-3.4609 4.0977-5.4301 7.1898-5.4301 4.8519 0 7.1396 4.3155 7.1396 8.6814 0 4.2653-2.6647 8.4719-5.5977 11.774l-10.223 11.405c-0.58658 0.58658-0.58658 0.68714-0.58658 1.9692h19.768l1.4916-9.2681h-1.3324c-0.26816 1.6006-0.64523 3.9385-1.1732 4.743-0.37708 0.41899-3.8882 0.41899-5.0614 0.41899h-9.5948"/>
 </g>
 <g transform="translate(-399.64 143.9)">
  <path d="m897.35 194.75c4.3655-1.441 7.4579-5.17 7.4579-9.3768 0-4.3661-4.6927-7.349-9.8045-7.349-5.3798 0-9.4272 3.1926-9.4272 7.2401 0 1.7596 1.1732 2.7738 2.715 2.7738 1.6508 0 2.715-1.1734 2.715-2.7153 0-2.6649-2.5056-2.6649-3.3017-2.6649 1.6509-2.6145 5.1704-3.3015 7.0893-3.3015 2.1785 0 5.1116 1.1734 5.1116 5.9664 0 0.63714-0.10887 3.7289-1.4915 6.0753-1.6003 2.556-3.4106 2.7153-4.743 2.7652-0.42733 0.059-1.7011 0.15929-2.0782 0.15929-0.42733 0.059-0.79604 0.10887-0.79604 0.64517 0 0.57868 0.36871 0.57868 1.2737 0.57868h2.3463c4.3656 0 6.3435 3.6281 6.3435 8.849 0 7.2401-3.6785 8.79-6.0251 8.79-2.2877 0-6.2848-0.90475-8.1535-4.0475 1.8687 0.26011 3.5195-0.90474 3.5195-2.9325 0-1.9194-1.4413-2.9835-2.9832-2.9835-1.2821 0-2.9832 0.746-2.9832 3.0923 0 4.8434 4.9525 8.3626 10.76 8.3626 6.5025 0 11.346-4.8514 11.346-10.282 0-4.3661-3.3519-8.5224-8.8909-9.6454"/>
  <rect transform="scale(1,-1)" x="881.61" y="-237.16" width="27.03" height="2.5743" stroke-width="8.3416"/>
  <path d="m897.55 277.11v4.634c0 1.919-0.10887 2.5056-4.0473 2.5056h-1.1229v1.6508c2.1871-0.15922 4.9611-0.15922 7.198-0.15922 2.2375 0 5.0616 0 7.2401 0.15922v-1.6508h-1.1144c-3.9467 0-4.0475-0.58658-4.0475-2.5056v-4.634h5.3212v-1.6508h-5.3212v-24.243c0-1.0642 0-1.3826-0.85433-1.3826-0.47785 0-0.63713 0-1.0646 0.63686l-16.357 24.988v1.6508zm0.31856-1.6508h-12.997l12.997-19.868z"/>
 </g>
 <g transform="translate(28.379)">
  <path d="m469.11 587.38c4.3655-1.441 7.4579-5.17 7.4579-9.3768 0-4.3661-4.6927-7.349-9.8042-7.349-5.3802 0-9.4277 3.1926-9.4277 7.2401 0 1.7596 1.1734 2.7738 2.7153 2.7738 1.6508 0 2.7148-1.1734 2.7148-2.7153 0-2.6649-2.5051-2.6649-3.3015-2.6649 1.6508-2.6145 5.1705-3.3015 7.0894-3.3015 2.1785 0 5.1115 1.1734 5.1115 5.9664 0 0.63714-0.10887 3.7289-1.4915 6.0753-1.6003 2.556-3.4104 2.7153-4.7431 2.7652-0.42744 0.059-1.7012 0.15929-2.0782 0.15929-0.42743 0.059-0.79587 0.10887-0.79587 0.64517 0 0.57868 0.36844 0.57868 1.2737 0.57868h2.3463c4.3655 0 6.3434 3.6281 6.3434 8.849 0 7.2401-3.6785 8.79-6.0249 8.79-2.2879 0-6.285-0.90475-8.154-4.0475 1.869 0.26011 3.5198-0.90474 3.5198-2.9325 0-1.9194-1.4416-2.9835-2.9835-2.9835-1.2818 0-2.9829 0.746-2.9829 3.0923 0 4.8434 4.9522 8.3626 10.759 8.3626 6.5027 0 11.347-4.8514 11.347-10.282 0-4.3661-3.3519-8.5224-8.8909-9.6454"/>
  <rect transform="scale(1,-1)" x="453.59" y="-629.79" width="27.03" height="2.5743" stroke-width="8.3416"/>
  <path d="m477.58 667.82c0-6.3351-4.3741-11.665-10.123-11.665-2.5641 0-4.8514 0.85476-6.7709 2.715v-10.391c1.0646 0.31846 2.8242 0.69553 4.5339 0.69553 6.5526 0 10.282-4.8519 10.282-5.539 0-0.31846-0.15875-0.58661-0.53631-0.58661-0.0499 0-0.15874 0-0.4269 0.15923-1.0646 0.47763-3.679 1.5419-7.2401 1.5419-2.1372 0-4.5838-0.36871-7.0894-1.4916-0.42744-0.15923-0.53631-0.15923-0.63713-0.15923-0.53631 0-0.53631 0.42738-0.53631 1.2821v15.771c0 0.95527 0 1.3826 0.746 1.3826 0.37703 0 0.47785-0.15923 0.69559-0.47763 0.58672-0.85477 2.5555-3.729 6.8712-3.729 2.7657 0 4.0979 2.4469 4.5253 3.4106 0.85487 1.9693 0.96374 4.0474 0.96374 6.7122 0 1.8603 0 5.0614-1.2823 7.2988-1.2737 2.0782-3.2511 3.4608-5.6982 3.4608-3.8882 0-6.9301-2.824-7.8349-5.9664 0.15928 0.0503 0.31803 0.10898 0.90474 0.10898 1.7596 0 2.6649-1.3324 2.6649-2.6145 0-1.2821-0.90529-2.6145-2.6649-2.6145-0.74546 0-2.6059 0.37708-2.6059 2.824 0 4.5837 3.6785 9.7541 9.6449 9.7541 6.1761 0 11.614-5.1117 11.614-11.883"/>
 </g>
 <g transform="translate(29.87)">
  <path d="m716.74 169.82c4.3655-1.441 7.4579-5.17 7.4579-9.3768 0-4.3661-4.6927-7.349-9.8042-7.349-5.3802 0-9.4277 3.1926-9.4277 7.2401 0 1.7596 1.1734 2.7738 2.7153 2.7738 1.6508 0 2.7148-1.1734 2.7148-2.7153 0-2.6649-2.5051-2.6649-3.3015-2.6649 1.6507-2.6145 5.1705-3.3015 7.0894-3.3015 2.1785 0 5.1115 1.1734 5.1115 5.9664 0 0.63714-0.10887 3.7289-1.4915 6.0753-1.6003 2.556-3.4104 2.7153-4.7431 2.7652-0.42743 0.059-1.7012 0.15929-2.0782 0.15929-0.42744 0.059-0.79588 0.10887-0.79588 0.64517 0 0.57868 0.36844 0.57868 1.2737 0.57868h2.3463c4.3655 0 6.3434 3.6281 6.3434 8.849 0 7.2401-3.6785 8.79-6.0248 8.79-2.2879 0-6.285-0.90475-8.154-4.0475 1.869 0.26011 3.5198-0.90474 3.5198-2.9325 0-1.9194-1.4416-2.9835-2.9835-2.9835-1.2818 0-2.9829 0.746-2.9829 3.0923 0 4.8434 4.9522 8.3626 10.759 8.3626 6.5027 0 11.347-4.8514 11.347-10.282 0-4.3661-3.3519-8.5224-8.8909-9.6454"/>
  <rect transform="scale(1,-1)" x="701.33" y="-212.24" width="27.03" height="2.5743" stroke-width="8.3416"/>
  <path d="m716.95 252.19v4.634c0 1.919-0.10887 2.5056-4.0475 2.5056h-1.1225v1.6508c2.1871-0.15922 4.9608-0.15922 7.1978-0.15922 2.2375 0 5.0616 0 7.2401 0.15922v-1.6508h-1.1144c-3.9467 0-4.0475-0.58658-4.0475-2.5056v-4.634h5.3212v-1.6508h-5.3212v-24.243c0-1.0642 0-1.3826-0.85433-1.3826-0.47785 0-0.63713 0-1.0646 0.63686l-16.357 24.988v1.6508zm0.31856-1.6508h-12.997l12.997-19.868z"/>
  <path d="m717.82 317.23c0-1.2737 0-1.3826-1.2233-1.3826-3.3015 3.4104-7.9942 3.4104-9.6953 3.4104v1.6508c1.064 0 4.2068 0 6.98-1.3826v27.595c0 1.9189-0.1587 2.556-4.9608 2.556h-1.7007v1.6508c1.86-0.15929 6.5028-0.15929 8.6308-0.15929 2.1286 0 6.7628 0 8.6313 0.15929v-1.6508h-1.7092c-4.7935 0-4.9528-0.58672-4.9528-2.556v-29.89"/>
  <rect transform="scale(1,-1)" x="701.88" y="-374.99" width="27.03" height="2.5743" stroke-width="8.3416"/>
  <path d="m721.71 406.79v1.7095c0 12.461-5.5389 14.916-8.6313 14.916-0.9047 0-3.7788-0.10894-5.2204-1.919 2.3464 0 2.7738-1.5419 2.7738-2.4469 0-1.6592-1.2823-2.4553-2.4552-2.4553-0.8463 0-2.4472 0.47764-2.4472 2.5558 0 3.5698 2.8746 5.7569 7.408 5.7569 6.8712 0 13.366-7.2485 13.366-18.704 0-14.329-6.1256-17.95-10.869-17.95-2.9245 0-5.539 0.95532-7.8269 3.3519-2.187 2.3966-3.4103 4.634-3.4103 8.6312 0 6.6619 4.6841 11.882 10.659 11.882 3.2431 0 5.4301-2.2374 6.6534-5.3295zm-6.603 4.1061c-0.8548 0-3.302 0-4.9527-3.3603-0.9638-1.9693-0.9638-4.634-0.9638-7.2401 0-2.8826 0-5.3798 1.123-7.3575 1.4331-2.6647 3.4608-3.3519 5.3213-3.3519 2.4552 0 4.2148 1.81 5.1201 4.2067 0.6366 1.701 0.8549 5.0614 0.8549 7.5083 0 4.4245-1.8187 9.5948-6.5028 9.5948"/>
  <path d="m707.9 570.95c0-1.2737 0-1.3826-1.2233-1.3826-3.3015 3.4104-7.9942 3.4104-9.6953 3.4104v1.6508c1.064 0 4.2068 0 6.98-1.3826v27.595c0 1.9189-0.1588 2.556-4.9608 2.556h-1.7007v1.6508c1.86-0.15929 6.5027-0.15929 8.6308-0.15929 2.1286 0 6.7628 0 8.6313 0.15929v-1.6508h-1.7092c-4.7935 0-4.9528-0.58672-4.9528-2.556v-29.89"/>
  <path d="m734.71 570.95c0-1.2737 0-1.3826-1.2233-1.3826-3.3015 3.4104-7.9942 3.4104-9.6953 3.4104v1.6508c1.064 0 4.2067 0 6.98-1.3826v27.595c0 1.9189-0.1588 2.556-4.9609 2.556h-1.7006v1.6508c1.8599-0.15929 6.5027-0.15929 8.6308-0.15929 2.1286 0 6.7628 0 8.6313 0.15929v-1.6508h-1.7092c-4.7935 0-4.9528-0.58672-4.9528-2.556v-29.89"/>
  <rect transform="scale(1,-1)" x="692.06" y="-628.71" width="54.06" height="2.5743" stroke-width="11.797"/>
  <path d="m707.9 643.35c0-1.2737 0-1.3827-1.2233-1.3827-3.3015 3.4106-7.9942 3.4106-9.6953 3.4106v1.6508c1.064 0 4.2068 0 6.98-1.3826v27.595c0 1.919-0.1588 2.5558-4.9608 2.5558h-1.7007v1.6508c1.86-0.15922 6.5027-0.15922 8.6308-0.15922 2.1286 0 6.7628 0 8.6313 0.15922v-1.6508h-1.7092c-4.7935 0-4.9528-0.58658-4.9528-2.5558v-29.891"/>
  <path d="m743.55 660.4c0-4.2653-0.2601-8.5306-2.1286-12.469-2.4472-5.1116-6.8213-5.9664-9.0587-5.9664-3.1927 0-7.0809 1.3827-9.2679 6.3351-1.7012 3.6787-1.9694 7.8351-1.9694 12.1 0 3.9888 0.2097 8.7904 2.3968 12.838 2.2873 4.3156 6.1841 5.3798 8.79 5.3798 2.8746 0 6.9302-1.1229 9.2685-6.1843 1.7092-3.6703 1.9693-7.8267 1.9693-12.033zm-11.238 17.044c-2.0781 0-5.2204-1.3324-6.1755-6.444-0.5867-3.2011-0.5867-8.1033-0.5867-11.246 0-3.4106 0-6.9217 0.4188-9.8043 1.0142-6.3351 5.0113-6.8128 6.3434-6.8128 1.7602 0 5.2714 0.95533 6.285 6.2346 0.5363 2.9832 0.5363 7.0306 0.5363 10.383 0 3.9971 0 7.6172-0.5867 11.028-0.7959 5.0614-3.8378 6.6619-6.2346 6.6619"/>
 </g>
 <g stroke-linecap="square" stroke-miterlimit="2" stroke-width="5">
  <path d="m330.31 69.368 6.608 20.272h-13.104zm4.816 36.008h16.408v-1.68l-5.152-0.448-13.16-38.976h-3.136l-12.936 38.864-4.76 0.56v1.68h12.544v-1.68l-5.432-0.56 3.752-11.704h14.28l3.808 11.76-6.216 0.504zm43.522-19.152c-8.568 0-15.064 4.536-15.064 10.584 0 7.616 8.512 10.584 17.864 10.584 7 0 9.688-1.064 9.688-2.52 0-1.176-1.232-1.848-2.912-1.848-1.96 0-3.808 0.616-8.064 0.616-8.736 0-13.72-2.968-13.72-7.28 0-4.592 4.872-8.064 11.144-8.064 5.712 0 10.416 1.848 13.72 3.752 1.568 0.896 2.408 1.736 3.584 1.736 1.232 0 2.072-2.128 2.016-3.696-0.056-0.952-0.504-1.456-1.848-2.744-3.584-3.416-7.168-7.616-9.856-12.096 4.76-1.68 8.96-3.976 10.696-5.376 0.784-0.672 1.12-1.624 0.616-2.24-0.616-0.728-2.24-0.84-3.304-0.392-1.624 0.784-3.304 2.8-9.52 5.152-1.568-3.192-2.296-5.936-3.08-8.288-0.28-1.008-2.52-1.68-4.592-1.68-1.232 0-2.856 0.448-4.704 1.4l0.224 1.064c3.192-0.056 4.592-0.168 5.544 1.288 1.288 1.848 2.464 4.48 3.864 7.112-3.304 0.952-7.56 1.736-10.416 1.736-4.424 0-6.048-1.176-9.464-3.92l-1.008 0.896c3.08 4.312 5.152 6.272 10.472 6.216 3.64 0 8.568-1.12 12.04-2.128 2.744 4.312 5.712 8.512 8.568 11.76 0.392 0.448 0.28 0.504-0.28 0.392-2.52-0.784-6.888-2.016-12.208-2.016zm51.922-22.624c1.008 0.336 2.52 0.896 3.248 1.512 0.728 0.504 0.896 1.288 0.168 2.688-2.016 3.696-10.472 17.584-15.344 26.04-2.912 5.04-5.096 8.512-5.096 10.528 0 1.568 0.896 2.576 1.904 2.576 1.064 0 1.624-0.672 2.128-1.904 0.784-2.016 1.848-5.32 3.528-8.904 2.688-5.488 7.448-10.64 12.768-10.64 3.248 0 4.2 1.96 4.2 4.424 0 3.304-0.504 6.72-0.448 9.8 0 5.04 2.912 7.448 7.616 7.448 5.656 0 12.432-3.696 14.84-16.016l-1.232-0.392c-2.464 6.608-6.72 12.768-12.936 12.768-3.248 0-4.648-1.624-4.648-4.648 0-2.576 0.28-5.936 0.224-8.568-0.056-4.48-2.296-6.832-6.888-6.832-2.184 0-4.816 0.952-7.728 2.688-0.448 0.28-0.728 0-0.448-0.448 2.352-4.088 8.008-12.264 10.36-15.008 1.4-1.736 2.968-2.072 2.968-3.192 0-1.736-2.408-4.144-4.984-4.76-1.008-0.336-2.744-0.448-3.864-0.28z" opacity=".99" style="paint-order:markers stroke fill" aria-label="Aさん"/>
  <path d="m578.23 66.288 5.768 0.448c0.056 5.544 0.056 11.088 0.056 16.632v2.968c0 5.712 0 11.312-0.056 16.856l-5.768 0.504v1.68h16.24c11.48 0 15.848-5.264 15.848-11.088 0-5.376-3.64-9.464-12.376-10.36 7.28-1.4 10.192-5.264 10.192-9.632 0-5.768-4.2-9.688-13.384-9.688h-16.52zm10.752 18.704h4.032c8.512 0 12.264 3.248 12.264 9.352 0 5.936-4.144 9.184-11.2 9.184h-4.984c-0.112-5.656-0.112-11.48-0.112-18.536zm0.112-18.536h4.256c7.224 0 9.968 2.912 9.968 7.896 0 5.656-3.64 8.904-10.864 8.904h-3.472c0-5.824 0-11.368 0.112-16.8zm50.41 19.768c-8.568 0-15.064 4.536-15.064 10.584 0 7.616 8.512 10.584 17.864 10.584 7 0 9.688-1.064 9.688-2.52 0-1.176-1.232-1.848-2.912-1.848-1.96 0-3.808 0.616-8.064 0.616-8.736 0-13.72-2.968-13.72-7.28 0-4.592 4.872-8.064 11.144-8.064 5.712 0 10.416 1.848 13.72 3.752 1.568 0.896 2.408 1.736 3.584 1.736 1.232 0 2.072-2.128 2.016-3.696-0.056-0.952-0.504-1.456-1.848-2.744-3.584-3.416-7.168-7.616-9.856-12.096 4.76-1.68 8.96-3.976 10.696-5.376 0.784-0.672 1.12-1.624 0.616-2.24-0.616-0.728-2.24-0.84-3.304-0.392-1.624 0.784-3.304 2.8-9.52 5.152-1.568-3.192-2.296-5.936-3.08-8.288-0.28-1.008-2.52-1.68-4.592-1.68-1.232 0-2.856 0.448-4.704 1.4l0.224 1.064c3.192-0.056 4.592-0.168 5.544 1.288 1.288 1.848 2.464 4.48 3.864 7.112-3.304 0.952-7.56 1.736-10.416 1.736-4.424 0-6.048-1.176-9.464-3.92l-1.008 0.896c3.08 4.312 5.152 6.272 10.472 6.216 3.64 0 8.568-1.12 12.04-2.128 2.744 4.312 5.712 8.512 8.568 11.76 0.392 0.448 0.28 0.504-0.28 0.392-2.52-0.784-6.888-2.016-12.208-2.016zm51.922-22.624c1.008 0.336 2.52 0.896 3.248 1.512 0.728 0.504 0.896 1.288 0.168 2.688-2.016 3.696-10.472 17.584-15.344 26.04-2.912 5.04-5.096 8.512-5.096 10.528 0 1.568 0.896 2.576 1.904 2.576 1.064 0 1.624-0.672 2.128-1.904 0.784-2.016 1.848-5.32 3.528-8.904 2.688-5.488 7.448-10.64 12.768-10.64 3.248 0 4.2 1.96 4.2 4.424 0 3.304-0.504 6.72-0.448 9.8 0 5.04 2.912 7.448 7.616 7.448 5.656 0 12.432-3.696 14.84-16.016l-1.232-0.392c-2.464 6.608-6.72 12.768-12.936 12.768-3.248 0-4.648-1.624-4.648-4.648 0-2.576 0.28-5.936 0.224-8.568-0.056-4.48-2.296-6.832-6.888-6.832-2.184 0-4.816 0.952-7.728 2.688-0.448 0.28-0.728 0-0.448-0.448 2.352-4.088 8.008-12.264 10.36-15.008 1.4-1.736 2.968-2.072 2.968-3.192 0-1.736-2.408-4.144-4.984-4.76-1.008-0.336-2.744-0.448-3.864-0.28z" opacity=".99" style="paint-order:markers stroke fill" aria-label="Bさん"/>
  <path d="m9.7131 206.07c0.048 1.056 0.192 1.92 0.432 2.4 0.528 1.296 2.448 3.408 3.648 3.408s2.208-0.624 3.6-0.96c1.824-0.432 7.728-1.296 11.472-1.68-0.768 8.976-4.32 14.688-13.296 20.208l0.72 0.912c10.32-4.464 15.024-11.616 15.792-21.456 3.456-0.24 8.256-0.48 10.368-0.48 2.4 0 4.176 0.384 4.992 0.384 1.008 0 1.344-0.528 1.344-1.296 0-1.392-2.688-2.352-4.608-2.352-0.912 0-1.248 0.288-4.272 0.72l-7.728 0.864v-2.016c0-1.968 0.624-2.352 0.624-3.312 0-0.624-1.392-1.776-2.832-2.592 2.544-0.672 4.848-1.536 7.344-2.496 1.152-0.432 2.688-0.336 2.688-1.152 0-0.864-1.008-2.016-1.776-2.64-0.816-0.672-2.064-1.392-3.984-1.872l-0.624 0.672c1.872 1.44 1.968 2.16 1.152 2.688-2.304 1.584-12.288 4.704-20.544 6.24l0.24 1.2c6.672-0.72 10.224-1.392 12.816-1.968 1.44 1.296 1.68 2.4 1.728 4.512l-0.048 3.072c-3.888 0.432-12.24 1.344-15.36 1.344-1.2 0-2.064-1.2-3.12-2.64zm54.826 16.224-0.576 0.336c0 0.72 0.24 1.536 0.432 1.968 0.384 0.912 2.064 2.784 3.264 2.784 0.624 0 1.584-0.48 2.448-0.672 3.024-0.48 8.4-1.056 11.52-1.056 1.536 0 3.264 0.336 4.032 0.336 0.672 0 1.152-0.384 1.152-1.152 0-0.672-0.96-1.44-2.064-1.776 0.672-4.176 1.584-10.416 2.112-13.248 0.144-1.104 1.248-1.392 1.248-2.256 0-1.104-2.928-3.12-3.984-3.12-0.816 0-1.056 0.72-2.304 0.864-2.16 0.336-11.664 1.344-13.872 1.344-1.152 0-1.872-1.008-2.592-1.872l-0.72 0.24c0.048 0.576 0.096 1.344 0.288 1.968 0.288 0.912 2.016 2.88 3.12 2.88 0.72 0 1.584-0.576 2.592-0.816 3.408-0.624 9.936-1.44 12.624-1.44 0.24 0 0.384 0.096 0.336 0.384l-0.672 5.712c-4.608 0.336-12.672 1.2-14.064 1.2-1.104 0-2.016-0.912-2.784-1.68l-0.624 0.336c0.048 0.624 0.24 1.488 0.528 1.968 0.48 0.912 1.968 2.448 2.976 2.448 0.672 0 1.2-0.48 2.304-0.672 2.832-0.384 7.392-0.96 11.424-1.248l-0.768 6.96c-4.08 0.288-12.048 1.2-14.496 1.2-1.344 0-2.064-1.008-2.88-1.92zm43.21-4.656c0.048 0.576 0.384 1.968 0.816 2.736 0.624 1.248 2.736 3.168 4.08 3.168 1.056 0 1.68-0.672 4.224-1.152 2.832-0.576 8.544-1.296 12.624-1.296 3.6 0 5.664 0.432 7.104 0.432 1.344 0 1.872-0.288 1.872-1.056 0-1.008-1.248-2.016-2.88-2.256 1.008-5.568 2.016-11.472 2.496-13.632 0.288-1.296 1.488-1.728 1.488-2.736 0-1.2-3.216-3.456-4.464-3.456-0.912 0-1.248 0.96-2.928 1.152-2.976 0.384-16.512 1.728-18.96 1.728-1.68 0-2.448-1.536-3.408-2.688l-0.96 0.336c0 0.72 0.192 1.968 0.432 2.544 0.384 1.2 2.592 3.504 3.888 3.504 0.864 0 1.968-0.816 3.072-1.056 3.408-0.672 15.888-2.112 17.952-2.112 0.384 0 0.528 0.144 0.48 0.528-0.192 2.736-1.2 10.128-2.016 15.888-5.28 0.384-18 1.728-19.872 1.728s-3.072-1.584-4.128-2.832zm51.658 11.808c9.504-5.136 15.12-12.528 17.952-20.064 0.384-1.056 1.2-1.392 1.2-2.208s-1.44-2.016-3.408-2.832c2.64-0.336 5.376-0.624 7.008-0.72 2.208-0.144 5.184-0.096 6.624-0.096 1.632 0 1.872-0.48 1.872-1.296 0-1.2-2.256-2.256-3.888-2.256-0.912 0-1.2 0.624-3.312 0.912-2.64 0.432-13.632 1.92-16.368 1.92-0.576 0-1.104-0.096-1.728-0.288 1.296-1.872 2.448-3.792 3.504-5.808 0.576-0.96 1.584-1.2 1.584-2.064s-1.68-2.4-3.024-3.072c-0.768-0.432-2.016-0.816-3.264-1.008l-0.48 0.768c1.44 1.152 2.208 1.92 2.208 2.976 0 2.928-5.424 12.336-13.056 18.72l0.816 0.912c4.608-3.072 7.92-6.336 10.56-9.84 0.816 0.72 1.776 1.392 2.448 1.392 0.912 0 2.064-0.336 3.264-0.48l2.688-0.384c1.008 0.624 1.68 1.344 1.68 2.304 0 4.704-6.384 15.36-15.744 21.6zm42.25-21.888-0.96 0.288c0.048 0.96 0.096 1.776 0.432 2.688 0.672 1.632 2.928 3.984 4.272 3.984 1.392 0 1.92-0.72 4.656-1.008 3.6-0.432 17.088-1.152 20.112-1.152 2.928 0 4.608 0.096 6.288 0.096 1.632 0 2.112-0.528 2.112-1.392 0-1.296-2.16-2.112-3.984-2.112-1.248 0-2.592 0.288-5.808 0.528-2.208 0.096-19.008 1.2-23.28 1.2-2.016 0-2.784-1.488-3.84-3.12zm48.01 6.72c0.288 1.056 0.528 1.824 0.912 2.304 0.768 0.96 2.784 2.16 3.792 2.112 1.056 0 1.536-0.72 3.312-1.344 2.544-0.912 7.008-2.16 10.416-3.024l1.152 6.336c0.48 2.688 0.816 5.664 1.056 6.48 0.288 1.248 1.392 2.736 2.4 2.736 0.96 0 1.296-0.768 1.296-1.488 0-1.248-0.384-2.352-0.912-4.512-0.48-1.872-1.344-5.664-2.352-10.176 7.248-1.68 10.224-2.208 14.592-2.64 1.248-0.096 1.536-0.72 1.536-1.344 0-1.056-1.968-1.824-4.128-1.68-0.432 0.048-0.672 0.288-2.016 0.672-1.632 0.528-6.72 1.872-10.512 2.736l-1.68-8.016c2.928-0.672 7.488-1.632 10.128-2.16 1.2-0.24 1.92-0.672 1.92-1.488 0-1.152-2.208-1.584-3.6-1.488-0.432 0.048-1.2 0.576-3.216 1.248-1.728 0.528-3.648 1.056-5.712 1.584-0.384-2.016-0.624-3.216-0.816-4.752-0.144-1.488 0.576-1.824 0.528-2.736-0.048-1.008-2.688-2.16-4.752-2.16-0.768 0-2.496 0.48-3.744 0.96l0.144 1.008c1.68 0.288 3.6 0.192 4.128 1.2 0.528 0.96 1.248 4.176 1.92 7.104-3.936 0.912-9.072 2.016-10.128 2.016-1.104 0-1.776-0.864-2.544-1.632l-0.816 0.384c0.192 1.008 0.336 1.536 0.768 2.112 0.672 0.96 2.784 2.208 3.744 2.208 0.864 0 1.152-0.528 2.496-0.96 1.872-0.576 4.416-1.248 7.008-1.824l1.68 8.064c-4.8 1.248-13.104 3.216-14.496 3.216-0.72 0-1.44-0.48-2.688-1.584z" opacity=".99" style="paint-order:markers stroke fill" aria-label="チョコケーキ"/>
  <path d="m33.617 360.26c2.016 1.008 2.832 1.68 2.832 2.448 0 0.384-0.384 1.2-1.296 2.448-3.36 4.752-11.664 13.536-23.808 20.304l0.624 1.152c8.4-3.456 15.024-8.736 18-11.376 0.528 0.672 0.672 1.248 0.72 2.112 0.144 2.16-0.048 10.176-0.432 13.44-0.192 1.584-0.576 2.544-0.576 3.408 0 1.584 0.816 3.888 2.4 3.888 1.008 0 1.44-0.576 1.44-2.352 0-2.88-0.24-10.224 0.096-17.184 0-1.2 0.432-1.872 0.432-2.496 0-0.672-1.104-1.488-2.448-2.352 3.168-3.024 5.52-5.616 7.296-7.584 1.296-1.44 2.16-1.344 2.16-2.256 0-1.248-2.112-3.36-3.984-3.984-1.008-0.432-2.016-0.48-3.12-0.528zm24.346 14.016c0.048 1.056 0.192 1.92 0.432 2.4 0.528 1.296 2.448 3.408 3.648 3.408s2.208-0.624 3.6-0.96c1.824-0.432 7.728-1.296 11.472-1.68-0.768 8.976-4.32 14.688-13.296 20.208l0.72 0.912c10.32-4.464 15.024-11.616 15.792-21.456 3.456-0.24 8.256-0.48 10.368-0.48 2.4 0 4.176 0.384 4.992 0.384 1.008 0 1.344-0.528 1.344-1.296 0-1.392-2.688-2.352-4.608-2.352-0.912 0-1.248 0.288-4.272 0.72l-7.728 0.864v-2.016c0-1.968 0.624-2.352 0.624-3.312 0-0.624-1.392-1.776-2.832-2.592 2.544-0.672 4.848-1.536 7.344-2.496 1.152-0.432 2.688-0.336 2.688-1.152 0-0.864-1.008-2.016-1.776-2.64-0.816-0.672-2.064-1.392-3.984-1.872l-0.624 0.672c1.872 1.44 1.968 2.16 1.152 2.688-2.304 1.584-12.288 4.704-20.544 6.24l0.24 1.2c6.672-0.72 10.224-1.392 12.816-1.968 1.44 1.296 1.68 2.4 1.728 4.512l-0.048 3.072c-3.888 0.432-12.24 1.344-15.36 1.344-1.2 0-2.064-1.2-3.12-2.64zm80.506-7.392c0.912 1.2 1.536 2.256 2.208 2.256 0.72 0 1.152-0.432 1.152-1.248 0-0.912-0.48-1.776-1.632-2.832-1.248-1.152-3.024-2.256-5.52-3.216l-0.624 0.816c2.112 1.536 3.408 2.976 4.416 4.224zm4.368-3.84c1.056 1.152 1.488 2.304 2.304 2.304 0.72 0 1.104-0.432 1.104-1.2 0-1.008-0.48-1.92-1.776-2.976-1.152-1.008-3.024-1.92-5.472-2.832l-0.624 0.864c2.256 1.488 3.408 2.64 4.464 3.84zm-36.672 24.048c0.048 0.624 0.384 1.968 0.816 2.784 0.624 1.2 2.784 3.168 4.08 3.168 1.056 0 1.68-0.672 4.224-1.2 2.832-0.528 8.544-1.296 12.624-1.296 3.6 0 5.664 0.48 7.104 0.48 1.344 0 1.872-0.336 1.872-1.104 0-0.96-1.248-1.968-2.88-2.256 1.008-5.52 2.016-11.472 2.496-13.584 0.288-1.344 1.488-1.776 1.488-2.784 0-1.152-3.168-3.456-4.464-3.456-0.912 0-1.248 0.96-2.928 1.152-2.976 0.384-16.512 1.776-18.96 1.776-1.68 0-2.448-1.584-3.408-2.736l-0.96 0.336c0.048 0.72 0.192 1.968 0.432 2.544 0.384 1.248 2.592 3.552 3.888 3.552 0.864 0 1.968-0.864 3.072-1.104 3.408-0.672 15.888-2.112 17.952-2.112 0.384 0 0.528 0.144 0.48 0.528-0.192 2.784-1.2 10.176-2.016 15.888-5.28 0.384-18 1.728-19.824 1.728-1.872 0-3.12-1.536-4.176-2.784zm53.002 10.56c9.504-5.136 15.12-12.528 17.952-20.064 0.384-1.056 1.2-1.392 1.2-2.208s-1.44-2.016-3.408-2.832c2.64-0.336 5.376-0.624 7.008-0.72 2.208-0.144 5.184-0.096 6.624-0.096 1.632 0 1.872-0.48 1.872-1.296 0-1.2-2.256-2.256-3.888-2.256-0.912 0-1.2 0.624-3.312 0.912-2.64 0.432-13.632 1.92-16.368 1.92-0.576 0-1.104-0.096-1.728-0.288 1.296-1.872 2.448-3.792 3.504-5.808 0.576-0.96 1.584-1.2 1.584-2.064s-1.68-2.4-3.024-3.072c-0.768-0.432-2.016-0.816-3.264-1.008l-0.48 0.768c1.44 1.152 2.208 1.92 2.208 2.976 0 2.928-5.424 12.336-13.056 18.72l0.816 0.912c4.608-3.072 7.92-6.336 10.56-9.84 0.816 0.72 1.776 1.392 2.448 1.392 0.912 0 2.064-0.336 3.264-0.48l2.688-0.384c1.008 0.624 1.68 1.344 1.68 2.304 0 4.704-6.384 15.36-15.744 21.6zm42.25-21.888-0.96 0.288c0.048 0.96 0.096 1.776 0.432 2.688 0.672 1.632 2.928 3.984 4.272 3.984 1.392 0 1.92-0.72 4.656-1.008 3.6-0.432 17.088-1.152 20.112-1.152 2.928 0 4.608 0.096 6.288 0.096 1.632 0 2.112-0.528 2.112-1.392 0-1.296-2.16-2.112-3.984-2.112-1.248 0-2.592 0.288-5.808 0.528-2.208 0.096-19.008 1.2-23.28 1.2-2.016 0-2.784-1.488-3.84-3.12zm48.01 6.72c0.288 1.056 0.528 1.824 0.912 2.304 0.768 0.96 2.784 2.16 3.792 2.112 1.056 0 1.536-0.72 3.312-1.344 2.544-0.912 7.008-2.16 10.416-3.024l1.152 6.336c0.48 2.688 0.816 5.664 1.056 6.48 0.288 1.248 1.392 2.736 2.4 2.736 0.96 0 1.296-0.768 1.296-1.488 0-1.248-0.384-2.352-0.912-4.512-0.48-1.872-1.344-5.664-2.352-10.176 7.248-1.68 10.224-2.208 14.592-2.64 1.248-0.096 1.536-0.72 1.536-1.344 0-1.056-1.968-1.824-4.128-1.68-0.432 0.048-0.672 0.288-2.016 0.672-1.632 0.528-6.72 1.872-10.512 2.736l-1.68-8.016c2.928-0.672 7.488-1.632 10.128-2.16 1.2-0.24 1.92-0.672 1.92-1.488 0-1.152-2.208-1.584-3.6-1.488-0.432 0.048-1.2 0.576-3.216 1.248-1.728 0.528-3.648 1.056-5.712 1.584-0.384-2.016-0.624-3.216-0.816-4.752-0.144-1.488 0.576-1.824 0.528-2.736-0.048-1.008-2.688-2.16-4.752-2.16-0.768 0-2.496 0.48-3.744 0.96l0.144 1.008c1.68 0.288 3.6 0.192 4.128 1.2 0.528 0.96 1.248 4.176 1.92 7.104-3.936 0.912-9.072 2.016-10.128 2.016-1.104 0-1.776-0.864-2.544-1.632l-0.816 0.384c0.192 1.008 0.336 1.536 0.768 2.112 0.672 0.96 2.784 2.208 3.744 2.208 0.864 0 1.152-0.528 2.496-0.96 1.872-0.576 4.416-1.248 7.008-1.824l1.68 8.064c-4.8 1.248-13.104 3.216-14.496 3.216-0.72 0-1.44-0.48-2.688-1.584z" opacity=".99" style="paint-order:markers stroke fill" aria-label="イチゴケーキ"/>
 </g>
</svg>
