<svg width="210mm" height="172.7mm" version="1.1" viewBox="0 0 210 172.7" xml:space="preserve" xmlns="http://www.w3.org/2000/svg" xmlns:xlink="http://www.w3.org/1999/xlink"><defs><style type="text/css">*{stroke-linejoin: round; stroke-linecap: butt}</style><path id="mccccfcb906" d="m0 0v3.5" stroke="#000" stroke-width=".8"/><clipPath id="p05c0831af9"><rect x="57.6" y="41.472" width="357.12" height="266.11"/></clipPath><style type="text/css">*{stroke-linejoin: round; stroke-linecap: butt}</style><clipPath id="p3388c39299"><rect x="57.6" y="41.472" width="357.12" height="266.11"/></clipPath></defs><g transform="matrix(.35278 0 0 .35278 23.275 87.642)"/><g transform="matrix(.21801 0 0 .21801 114.64 94.605)"><use x="73.832726" y="307.58401" stroke="#000000" stroke-width=".8" xlink:href="#mccccfcb906"/><use x="114.41454" y="307.58401" stroke="#000000" stroke-width=".8" xlink:href="#mccccfcb906"/><use x="154.99637" y="307.58401" stroke="#000000" stroke-width=".8" xlink:href="#mccccfcb906"/><use x="195.57819" y="307.58401" stroke="#000000" stroke-width=".8" xlink:href="#mccccfcb906"/><use x="236.16" y="307.58401" stroke="#000000" stroke-width=".8" xlink:href="#mccccfcb906"/><use x="276.74182" y="307.58401" stroke="#000000" stroke-width=".8" xlink:href="#mccccfcb906"/><use x="317.32364" y="307.58401" stroke="#000000" stroke-width=".8" xlink:href="#mccccfcb906"/><use x="357.90546" y="307.58401" stroke="#000000" stroke-width=".8" xlink:href="#mccccfcb906"/><use x="398.48727" y="307.58401" stroke="#000000" stroke-width=".8" xlink:href="#mccccfcb906"/></g><g transform="matrix(.21801 0 0 .21801 114.64 111.04)" fill="none" stroke="#000" stroke-linecap="square"><path d="m114.41 194.49v-39.917h121.75v39.917h-121.75" clip-path="url(#p05c0831af9)"/><path d="m114.41 174.53h-40.582" clip-path="url(#p05c0831af9)"/><path d="m236.16 174.53h162.33" clip-path="url(#p05c0831af9)"/><path d="m73.833 184.51v-19.958" clip-path="url(#p05c0831af9)"/><path d="m398.49 184.51v-19.958" clip-path="url(#p05c0831af9)"/><path d="m195.58 194.49v-39.917" clip-path="url(#p05c0831af9)"/></g><g transform="matrix(.21801 0 0 .21801 114.64 94.605)"><path d="m57.6 307.58h357.12" fill="none" stroke="#000" stroke-linecap="square" stroke-width=".8"/></g><path d="m206.7 161.66-2.6184-1.1754 1.0075 1.1754-1.0075 1.1754"/><g transform="matrix(.21801 0 0 .21801 5.3455 94.605)"><use x="73.832726" y="307.58401" stroke="#000000" stroke-width=".8" xlink:href="#mccccfcb906"/><use x="114.41454" y="307.58401" stroke="#000000" stroke-width=".8" xlink:href="#mccccfcb906"/><use x="154.99637" y="307.58401" stroke="#000000" stroke-width=".8" xlink:href="#mccccfcb906"/><use x="195.57819" y="307.58401" stroke="#000000" stroke-width=".8" xlink:href="#mccccfcb906"/><use x="236.16" y="307.58401" stroke="#000000" stroke-width=".8" xlink:href="#mccccfcb906"/><use x="276.74182" y="307.58401" stroke="#000000" stroke-width=".8" xlink:href="#mccccfcb906"/><use x="317.32364" y="307.58401" stroke="#000000" stroke-width=".8" xlink:href="#mccccfcb906"/><path d="m357.91 307.58v3.5" stroke="#000" stroke-width=".8"/><use x="398.48727" y="307.58401" stroke="#000000" stroke-width=".8" xlink:href="#mccccfcb906"/></g><g transform="matrix(.21801 0 0 .21801 5.3455 111.04)" fill="none" stroke="#000" stroke-linecap="square"><path d="m114.41 194.49v-39.917h243.49v39.917h-243.49" clip-path="url(#p05c0831af9)"/><path d="m114.41 174.53h-40.582" clip-path="url(#p05c0831af9)"/><path d="m358.37 174.53h40.113" clip-path="url(#p05c0831af9)"/><path d="m73.833 184.51v-19.958" clip-path="url(#p05c0831af9)"/><path d="m398.49 184.51v-19.958" clip-path="url(#p05c0831af9)"/></g><g transform="matrix(.21801 0 0 .21801 5.1205 111.04)"><path transform="translate(41.615)" d="m195.58 194.49v-39.917" clip-path="url(#p05c0831af9)" fill="none" stroke="#000" stroke-linecap="square"/></g><g transform="matrix(.21801 0 0 .21801 5.3455 94.605)"><path d="m57.6 307.58h357.12" fill="none" stroke="#000" stroke-linecap="square" stroke-width=".8"/></g><path d="m97.405 161.66-2.6184-1.1754 1.0075 1.1754-1.0075 1.1754"/><g transform="matrix(.21801 0 0 .21801 114.64 51.766)"><use x="73.832726" y="307.58401" stroke="#000000" stroke-width=".8" xlink:href="#mccccfcb906"/><use x="114.41454" y="307.58401" stroke="#000000" stroke-width=".8" xlink:href="#mccccfcb906"/><use x="154.99637" y="307.58401" stroke="#000000" stroke-width=".8" xlink:href="#mccccfcb906"/><use x="195.57819" y="307.58401" stroke="#000000" stroke-width=".8" xlink:href="#mccccfcb906"/><use x="236.16" y="307.58401" stroke="#000000" stroke-width=".8" xlink:href="#mccccfcb906"/><use x="276.74182" y="307.58401" stroke="#000000" stroke-width=".8" xlink:href="#mccccfcb906"/><use x="317.32364" y="307.58401" stroke="#000000" stroke-width=".8" xlink:href="#mccccfcb906"/><use x="357.90546" y="307.58401" stroke="#000000" stroke-width=".8" xlink:href="#mccccfcb906"/><use x="398.48727" y="307.58401" stroke="#000000" stroke-width=".8" xlink:href="#mccccfcb906"/></g><g transform="matrix(.21801 0 0 .21801 114.64 68.204)" fill="none" stroke="#000" stroke-linecap="square"><path d="m93.53 194.49v-39.917h41.111v39.917h-41.111" clip-path="url(#p05c0831af9)"/><path d="m92.872 174.53h-19.039" clip-path="url(#p05c0831af9)"/><path d="m134.81 174.53h100.96" clip-path="url(#p05c0831af9)"/><path d="m73.833 184.51v-19.958" clip-path="url(#p05c0831af9)"/></g><g transform="matrix(.21801 0 0 .21801 79.274 68.204)"><path d="m398.49 184.51v-19.958" clip-path="url(#p05c0831af9)" fill="none" stroke="#000" stroke-linecap="square"/></g><g transform="matrix(.21801 0 0 .21801 96.865 68.204)"><path d="m195.58 194.49v-39.917" clip-path="url(#p05c0831af9)" fill="none" stroke="#000" stroke-linecap="square"/></g><g transform="matrix(.21801 0 0 .21801 114.64 51.766)"><path d="m57.6 307.58h357.12" fill="none" stroke="#000" stroke-linecap="square" stroke-width=".8"/></g><path d="m206.7 118.82-2.6184-1.1754 1.0075 1.1754-1.0075 1.1754"/><g transform="matrix(.21801 0 0 .21801 5.3455 51.766)"><use x="73.832726" y="307.58401" stroke="#000000" stroke-width=".8" xlink:href="#mccccfcb906"/><use x="114.41454" y="307.58401" stroke="#000000" stroke-width=".8" xlink:href="#mccccfcb906"/><use x="154.99637" y="307.58401" stroke="#000000" stroke-width=".8" xlink:href="#mccccfcb906"/><path d="m195.58 307.58v3.5" stroke="#000" stroke-width=".8"/><use x="236.16" y="307.58401" stroke="#000000" stroke-width=".8" xlink:href="#mccccfcb906"/><use x="276.74182" y="307.58401" stroke="#000000" stroke-width=".8" xlink:href="#mccccfcb906"/><use x="317.32364" y="307.58401" stroke="#000000" stroke-width=".8" xlink:href="#mccccfcb906"/><path d="m357.91 307.58v3.5" stroke="#000" stroke-width=".8"/><use x="398.48727" y="307.58401" stroke="#000000" stroke-width=".8" xlink:href="#mccccfcb906"/></g><g transform="matrix(.21801 0 0 .21801 5.3455 68.204)" fill="none" stroke="#000" stroke-linecap="square"><path d="m114.41 194.49v-39.917h81.164v39.917h-81.164" clip-path="url(#p05c0831af9)"/><path d="m114.41 174.53h-40.582" clip-path="url(#p05c0831af9)"/><path d="m195.93 174.53h39.868" clip-path="url(#p05c0831af9)"/><path d="m73.833 184.51v-19.958" clip-path="url(#p05c0831af9)"/></g><g transform="matrix(.21801 0 0 .21801 -30.021 68.204)"><path d="m398.49 184.51v-19.958" clip-path="url(#p05c0831af9)" fill="none" stroke="#000" stroke-linecap="square"/></g><g transform="matrix(.21801 0 0 .21801 -12.574 68.204)"><path transform="translate(41.615)" d="m195.58 194.49v-39.917" clip-path="url(#p05c0831af9)" fill="none" stroke="#000" stroke-linecap="square"/></g><g transform="matrix(.21801 0 0 .21801 5.3455 51.766)"><path d="m57.6 307.58h357.12" fill="none" stroke="#000" stroke-linecap="square" stroke-width=".8"/></g><path d="m97.405 118.82-2.6184-1.1754 1.0075 1.1754-1.0075 1.1754"/><g transform="translate(2.0384 98.489)"><path d="m7.2487 3.7317c0-0.25417-0.018747-0.26251-0.28125-0.26251-0.6 0.58959-1.4521 0.59792-1.8375 0.59792v0.33749c0.225 0 0.84375 0 1.3604-0.26249v4.7813c0 0.31041 0 0.43124-0.93751 0.43124h-0.35624v0.33751c0.16875-0.00833 1.3208-0.037507 1.6687-0.037507 0.28959 0 1.4708 0.029173 1.6771 0.037507v-0.33751h-0.35625c-0.93749 0-0.93749-0.12083-0.93749-0.43124v-5.1917"/><path d="m6.355-0.54532c-0.37084 0.0396-0.72709 0.064533-1.0854 0.14573-3.0208 0.70007-5.2312 3.4834-5.2312 6.7542 0 2.8604 1.775 5.8146 4.8604 6.675 0.56875 0.17292 1.1792 0.26458 1.775 0.26458 3.6563 0 6.4771-3.125 6.6083-6.6625v-0.26459c0-3.55-2.6875-6.9125-6.7417-6.9125zm-5.7875 7.1916v-0.18541c0-3.2979 2.3833-6.4771 6.0917-6.4771h0.18541c3.1396 0.14583 5.9083 2.7937 5.9083 6.3833 0 3.2458-2.4771 6.3854-6.1333 6.3854-2.8875 0-5.4042-2.2521-5.9333-5.1396-0.066667-0.31875-0.079167-0.65-0.11875-0.96667"/></g><g transform="translate(96.638 98.489)"><path d="m23.642 7.9859h-0.3188c-0.02707 0.20625-0.1208 0.76041-0.24373 0.85417-0.07493 0.05624-0.79573 0.05624-0.92707 0.05624h-1.7249c0.98333-0.87291 1.3124-1.1354 1.8749-1.575 0.69373-0.55416 1.3396-1.1354 1.3396-2.025 0-1.1354-0.99373-1.8271-2.1937-1.8271-1.1625 0-1.95 0.81459-1.95 1.6771 0 0.47709 0.40413 0.525 0.49787 0.525 0.22507 0 0.49587-0.16041 0.49587-0.49791 0-0.16876-0.06453-0.49584-0.55213-0.49584 0.2896-0.66667 0.9272-0.87292 1.3688-0.87292 0.93747 0 1.4251 0.73125 1.4251 1.4917 0 0.81459-0.58133 1.4625-0.88133 1.8l-2.2604 2.2313c-0.09373 0.083333-0.09373 0.10208-0.09373 0.36459h3.8625l0.2812-1.7063"/><path d="m21.288-0.54532c-0.3708 0.0396-0.72707 0.064533-1.0855 0.14573-3.0208 0.70007-5.2312 3.4834-5.2312 6.7542 0 2.8604 1.7749 5.8146 4.8604 6.675 0.5688 0.17292 1.1792 0.26458 1.7749 0.26458 3.6563 0 6.4772-3.125 6.6084-6.6625v-0.26459c0-3.55-2.6875-6.9125-6.7417-6.9125zm-5.7875 7.1916v-0.18541c0-3.2979 2.3833-6.4771 6.0916-6.4771h0.18547c3.1396 0.14583 5.9083 2.7937 5.9083 6.3833 0 3.2458-2.4771 6.3854-6.1333 6.3854-2.8875 0-5.4041-2.2521-5.9333-5.1396-0.06667-0.31875-0.0792-0.65-0.11867-0.96667"/></g><g transform="translate(-27.562 140.49)"><path d="m36.134 6.5609c0.7312 0 1.2561 0.50625 1.2561 1.5104 0 1.1625-0.67493 1.5083-1.2187 1.5083-0.37507 0-1.2-0.10208-1.5937-0.65624 0.4416-0.01876 0.54373-0.32709 0.54373-0.525 0-0.3-0.22507-0.51459-0.51467-0.51459-0.2624 0-0.52493 0.15833-0.52493 0.54375 0 0.88125 0.97493 1.4521 2.1083 1.4521 1.3043 0 2.2043-0.87083 2.2043-1.8083 0-0.73124-0.6-1.4625-1.6313-1.6792 0.98333-0.35625 1.3396-1.0583 1.3396-1.6313 0-0.73959-0.852-1.2917-1.8937-1.2917-1.0396 0-1.8375 0.50417-1.8375 1.2542 0 0.31875 0.20627 0.49791 0.48747 0.49791 0.29173 0 0.4792-0.21667 0.4792-0.47916 0-0.27084-0.18747-0.46875-0.4792-0.48751 0.3292-0.41249 0.97507-0.51457 1.3229-0.51457 0.4208 0 1.0125 0.20624 1.0125 1.0208 0 0.39375-0.13133 0.825-0.37507 1.1167-0.3104 0.35625-0.57293 0.375-1.0416 0.40208-0.23333 0.01876-0.25213 0.01876-0.3 0.029173-0.0188 0-0.09373 0.018747-0.09373 0.12083 0 0.13125 0.08533 0.13125 0.24373 0.13125h0.50627"/><path d="m35.955-0.54532c-0.3708 0.0396-0.72707 0.064533-1.0855 0.14573-3.0208 0.70007-5.2312 3.4834-5.2312 6.7542 0 2.8604 1.7749 5.8146 4.8604 6.675 0.5688 0.17292 1.1792 0.26458 1.7749 0.26458 3.6563 0 6.4772-3.125 6.6084-6.6625v-0.26459c0-3.55-2.6875-6.9125-6.7417-6.9125zm-5.7875 7.1916v-0.18541c0-3.2979 2.3833-6.4771 6.0916-6.4771h0.18547c3.1396 0.14583 5.9083 2.7937 5.9083 6.3833 0 3.2458-2.4771 6.3854-6.1333 6.3854-2.8875 0-5.4041-2.2521-5.9333-5.1396-0.06667-0.31875-0.0792-0.65-0.11867-0.96667"/></g><g transform="translate(67.038 140.49)"><path d="m53.468 8.1546v-0.33749h-1.0396v-4.1792c0-0.19791 0-0.26249-0.20627-0.26249-0.11253 0-0.15 0-0.24373 0.13125l-3.1043 4.3104v0.33749h2.7563v0.76876c0 0.31875 0 0.43124-0.75827 0.43124h-0.25413v0.33751c0.46867-0.018747 1.0687-0.037507 1.4061-0.037507 0.348 0 0.948 0.01876 1.4167 0.037507v-0.33751h-0.25413c-0.75827 0-0.75827-0.11249-0.75827-0.43124v-0.76876zm-1.7709-3.7687v3.4313h-2.4749z"/><path d="m50.755-0.54532c-0.3708 0.0396-0.72707 0.064533-1.0855 0.14573-3.0208 0.70007-5.2312 3.4834-5.2312 6.7542 0 2.8604 1.7749 5.8146 4.8604 6.675 0.5688 0.17292 1.1792 0.26458 1.7749 0.26458 3.6563 0 6.4772-3.125 6.6084-6.6625v-0.26459c0-3.55-2.6875-6.9125-6.7417-6.9125zm-5.7875 7.1916v-0.18541c0-3.2979 2.3833-6.4771 6.0916-6.4771h0.18547c3.1396 0.14583 5.9083 2.7937 5.9083 6.3833 0 3.2458-2.4771 6.3854-6.1333 6.3854-2.8875 0-5.4041-2.2521-5.9333-5.1396-0.06667-0.31875-0.0792-0.65-0.11867-0.96667"/></g><g fill="none" stroke="#000"><path transform="matrix(.25602 0 0 .25602 43.372 2.3692)" d="m73.833 307.58h36.073v-116.97h-36.073z" clip-path="url(#p3388c39299)"/><path transform="matrix(.25602 0 0 .25602 43.372 2.3692)" d="m109.91 307.58h36.073v-155.96h-36.073z" clip-path="url(#p3388c39299)"/><path transform="matrix(.25602 0 0 .25602 43.372 2.3692)" d="m145.98 307.58h36.073v-194.95h-36.073z" clip-path="url(#p3388c39299)"/><path transform="matrix(.25602 0 0 .25602 43.372 2.3692)" d="m182.05 307.58h36.073v-253.44h-36.073z" clip-path="url(#p3388c39299)"/><path transform="matrix(.25602 0 0 .25602 43.372 2.3692)" d="m218.12 307.58h36.073v-175.46h-36.073z" clip-path="url(#p3388c39299)"/><path transform="matrix(.25602 0 0 .25602 43.372 2.3692)" d="m254.2 307.58h36.073v-77.982h-36.073z" clip-path="url(#p3388c39299)"/></g><g transform="matrix(.25602 0 0 .25602 43.372 2.3692)" fill="#fff" stroke="#000"><path d="m290.27 307.58h36.073z" clip-path="url(#p3388c39299)"/><path d="m326.34 307.58h36.073z" clip-path="url(#p3388c39299)"/></g><path transform="matrix(.25602 0 0 .25602 43.372 2.3692)" d="m362.41 307.58h36.073v-19.495h-36.073z" clip-path="url(#p3388c39299)" fill="none" stroke="#000"/><g transform="matrix(.25602 0 0 .25602 43.372 2.3692)" fill="none" stroke="#000" stroke-linecap="square" stroke-width=".8"><path d="m57.6 307.58v-266.11"/><path d="m57.6 307.58h357.12"/></g></svg>
