<svg width="210mm" height="150mm" version="1.1" viewBox="0 0 210 150" xml:space="preserve" xmlns="http://www.w3.org/2000/svg" xmlns:xlink="http://www.w3.org/1999/xlink"><defs><style type="text/css">*{stroke-linejoin: round; stroke-linecap: butt}</style><path id="mca7dcaf4a0" d="m0 3c0.79561 0 1.5587-0.3161 2.1213-0.87868 0.56258-0.56258 0.87868-1.3257 0.87868-2.1213s-0.3161-1.5587-0.87868-2.1213c-0.56258-0.56258-1.3257-0.87868-2.1213-0.87868s-1.5587 0.3161-2.1213 0.87868c-0.56258 0.56258-0.87868 1.3257-0.87868 2.1213s0.3161 1.5587 0.87868 2.1213c0.56258 0.56258 1.3257 0.87868 2.1213 0.87868z" stroke="#000"/><clipPath id="pd0730a3b04"><rect x="57.6" y="41.472" width="357.12" height="266.11"/></clipPath><style type="text/css">*{stroke-linejoin: round; stroke-linecap: butt}</style><path id="md5ebfc8c4c" d="m0 3c0.79561 0 1.5587-0.3161 2.1213-0.87868 0.56258-0.56258 0.87868-1.3257 0.87868-2.1213s-0.3161-1.5587-0.87868-2.1213c-0.56258-0.56258-1.3257-0.87868-2.1213-0.87868s-1.5587 0.3161-2.1213 0.87868c-0.56258 0.56258-0.87868 1.3257-0.87868 2.1213s0.3161 1.5587 0.87868 2.1213c0.56258 0.56258 1.3257 0.87868 2.1213 0.87868z" stroke="#000"/><clipPath id="pdc790463f4"><rect x="57.6" y="41.472" width="357.12" height="266.11"/></clipPath><style type="text/css">*{stroke-linejoin: round; stroke-linecap: butt}</style><path id="me8f83c0617" d="m0 3c0.79561 0 1.5587-0.3161 2.1213-0.87868 0.56258-0.56258 0.87868-1.3257 0.87868-2.1213s-0.3161-1.5587-0.87868-2.1213c-0.56258-0.56258-1.3257-0.87868-2.1213-0.87868s-1.5587 0.3161-2.1213 0.87868c-0.56258 0.56258-0.87868 1.3257-0.87868 2.1213s0.3161 1.5587 0.87868 2.1213c0.56258 0.56258 1.3257 0.87868 2.1213 0.87868z" stroke="#000"/><clipPath id="pde22153282"><rect x="57.6" y="41.472" width="357.12" height="266.11"/></clipPath><style type="text/css">*{stroke-linejoin: round; stroke-linecap: butt}</style><path id="m53fa429167" d="m0 3c0.79561 0 1.5587-0.3161 2.1213-0.87868 0.56258-0.56258 0.87868-1.3257 0.87868-2.1213s-0.3161-1.5587-0.87868-2.1213c-0.56258-0.56258-1.3257-0.87868-2.1213-0.87868s-1.5587 0.3161-2.1213 0.87868c-0.56258 0.56258-0.87868 1.3257-0.87868 2.1213s0.3161 1.5587 0.87868 2.1213c0.56258 0.56258 1.3257 0.87868 2.1213 0.87868z" stroke="#000"/><clipPath id="p9befe1ce62"><rect x="57.6" y="41.472" width="357.12" height="266.11"/></clipPath></defs><g transform="matrix(.21231 0 0 .21231 7.2271 .86445)"><g clip-path="url(#pd0730a3b04)" stroke="#000000"><use x="100.4544" y="251.70049" xlink:href="#mca7dcaf4a0"/><use x="121.8816" y="280.97281" xlink:href="#mca7dcaf4a0"/><use x="136.1664" y="246.37823" xlink:href="#mca7dcaf4a0"/><use x="168.30721" y="225.08928" xlink:href="#mca7dcaf4a0"/><use x="200.448" y="203.80032" xlink:href="#mca7dcaf4a0"/><use x="200.448" y="169.20576" xlink:href="#mca7dcaf4a0"/><use x="236.16" y="161.2224" xlink:href="#mca7dcaf4a0"/><use x="239.7312" y="105.33888" xlink:href="#mca7dcaf4a0"/><use x="300.44159" y="137.27232" xlink:href="#mca7dcaf4a0"/><use x="343.29599" y="81.388802" xlink:href="#mca7dcaf4a0"/></g><g fill="none" stroke="#000" stroke-linecap="square" stroke-width=".8"><path d="m57.6 307.58v-266.11"/><path d="m414.72 307.58v-266.11"/><path d="m57.6 307.58h357.12"/><path d="m57.6 41.472h357.12"/></g></g><g transform="matrix(.21231 0 0 .21231 117.23 .86445)"><g clip-path="url(#pdc790463f4)" stroke="#000000"><use x="96.883202" y="68.083199" xlink:href="#md5ebfc8c4c"/><use x="143.30881" y="123.96672" xlink:href="#md5ebfc8c4c"/><use x="168.30721" y="121.3056" xlink:href="#md5ebfc8c4c"/><use x="168.30721" y="70.744324" xlink:href="#md5ebfc8c4c"/><use x="186.16319" y="174.528" xlink:href="#md5ebfc8c4c"/><use x="225.4464" y="214.44479" xlink:href="#md5ebfc8c4c"/><use x="236.16" y="147.91679" xlink:href="#md5ebfc8c4c"/><use x="271.87201" y="254.3616" xlink:href="#md5ebfc8c4c"/><use x="318.29761" y="227.7504" xlink:href="#md5ebfc8c4c"/><use x="336.15359" y="275.65057" xlink:href="#md5ebfc8c4c"/></g><g fill="none" stroke="#000" stroke-linecap="square" stroke-width=".8"><path d="m57.6 307.58v-266.11"/><path d="m414.72 307.58v-266.11"/><path d="m57.6 307.58h357.12"/><path d="m57.6 41.472h357.12"/></g></g><g transform="matrix(.21231 0 0 .21231 7.2271 78.864)"><g clip-path="url(#pde22153282)" stroke="#000000"><use x="168.30721" y="150.57793" xlink:href="#me8f83c0617"/><use x="171.8784" y="195.81696" xlink:href="#me8f83c0617"/><use x="196.8768" y="174.528" xlink:href="#me8f83c0617"/><use x="204.0192" y="203.80032" xlink:href="#me8f83c0617"/><use x="204.0192" y="147.91679" xlink:href="#me8f83c0617"/><use x="229.01759" y="169.20576" xlink:href="#me8f83c0617"/><use x="232.58881" y="123.96672" xlink:href="#me8f83c0617"/><use x="243.3024" y="201.13921" xlink:href="#me8f83c0617"/><use x="254.01601" y="153.23904" xlink:href="#me8f83c0617"/><use x="268.30081" y="177.18912" xlink:href="#me8f83c0617"/></g><g fill="none" stroke="#000" stroke-linecap="square" stroke-width=".8"><path d="m57.6 307.58v-266.11"/><path d="m414.72 307.58v-266.11"/><path d="m57.6 307.58h357.12"/><path d="m57.6 41.472h357.12"/></g></g><g transform="matrix(.21231 0 0 .21231 117.23 78.864)"><g clip-path="url(#p9befe1ce62)" stroke="#000000"><use x="118.3104" y="169.20576" xlink:href="#m53fa429167"/><use x="132.5952" y="92.033279" xlink:href="#m53fa429167"/><use x="136.1664" y="241.056" xlink:href="#m53fa429167"/><use x="200.448" y="174.528" xlink:href="#m53fa429167"/><use x="214.7328" y="113.32224" xlink:href="#m53fa429167"/><use x="243.3024" y="249.03935" xlink:href="#m53fa429167"/><use x="250.44479" y="153.23904" xlink:href="#m53fa429167"/><use x="307.58401" y="97.355522" xlink:href="#m53fa429167"/><use x="343.29599" y="238.39488" xlink:href="#m53fa429167"/><use x="389.72159" y="100.01664" xlink:href="#m53fa429167"/></g><g fill="none" stroke="#000" stroke-linecap="square" stroke-width=".8"><path d="m57.6 307.58v-266.11"/><path d="m414.72 307.58v-266.11"/><path d="m57.6 307.58h357.12"/><path d="m57.6 41.472h357.12"/></g></g><g transform="translate(-4.5691 -12.943)"><path d="m13.571 24.865c0-0.25417-0.01875-0.26251-0.28125-0.26251-0.6 0.58959-1.4521 0.59792-1.8375 0.59792v0.33749c0.225 0 0.84375 0 1.3604-0.26249v4.7813c0 0.31041 0 0.43124-0.93751 0.43124h-0.35624v0.33751c0.16875-0.0083 1.3208-0.03751 1.6687-0.03751 0.28959 0 1.4708 0.02917 1.6771 0.03751v-0.33751h-0.35625c-0.93749 0-0.93749-0.12083-0.93749-0.43124v-5.1917"/><path d="m12.677 20.588c-0.37084 0.0396-0.72709 0.06453-1.0854 0.14573-3.0208 0.70007-5.2312 3.4834-5.2312 6.7542 0 2.8604 1.775 5.8146 4.8604 6.675 0.56875 0.17292 1.1792 0.26458 1.775 0.26458 3.6563 0 6.4771-3.125 6.6083-6.6625v-0.26459c0-3.55-2.6875-6.9125-6.7417-6.9125zm-5.7875 7.1916v-0.18541c0-3.2979 2.3833-6.4771 6.0917-6.4771h0.18541c3.1396 0.14583 5.9083 2.7937 5.9083 6.3833 0 3.2458-2.4771 6.3854-6.1333 6.3854-2.8875 0-5.4042-2.2521-5.9333-5.1396-0.066667-0.31875-0.079167-0.65-0.11875-0.96667"/></g><g transform="translate(88.831 -12.943)"><path d="m29.965 29.119h-0.3188c-0.02707 0.20625-0.1208 0.76041-0.24373 0.85417-0.07493 0.05624-0.79573 0.05624-0.92707 0.05624h-1.7249c0.98333-0.87291 1.3124-1.1354 1.8749-1.575 0.69373-0.55416 1.3396-1.1354 1.3396-2.025 0-1.1354-0.99373-1.8271-2.1937-1.8271-1.1625 0-1.95 0.81459-1.95 1.6771 0 0.47709 0.40413 0.525 0.49787 0.525 0.22507 0 0.49587-0.16041 0.49587-0.49791 0-0.16876-0.06453-0.49584-0.55213-0.49584 0.2896-0.66667 0.9272-0.87292 1.3688-0.87292 0.93747 0 1.4251 0.73125 1.4251 1.4917 0 0.81459-0.58133 1.4625-0.88133 1.8l-2.2604 2.2313c-0.09373 0.08333-0.09373 0.10208-0.09373 0.36459h3.8625l0.2812-1.7063"/><path d="m27.611 20.588c-0.3708 0.0396-0.72707 0.06453-1.0855 0.14573-3.0208 0.70007-5.2312 3.4834-5.2312 6.7542 0 2.8604 1.7749 5.8146 4.8604 6.675 0.5688 0.17292 1.1792 0.26458 1.7749 0.26458 3.6563 0 6.4772-3.125 6.6084-6.6625v-0.26459c0-3.55-2.6875-6.9125-6.7417-6.9125zm-5.7875 7.1916v-0.18541c0-3.2979 2.3833-6.4771 6.0916-6.4771h0.18547c3.1396 0.14583 5.9083 2.7937 5.9083 6.3833 0 3.2458-2.4771 6.3854-6.1333 6.3854-2.8875 0-5.4041-2.2521-5.9333-5.1396-0.06667-0.31875-0.0792-0.65-0.11867-0.96667"/></g><g transform="translate(-34.169 65.457)"><path d="m42.456 27.694c0.7312 0 1.2561 0.50625 1.2561 1.5104 0 1.1625-0.67493 1.5083-1.2187 1.5083-0.37507 0-1.2-0.10208-1.5937-0.65624 0.4416-0.01876 0.54373-0.32709 0.54373-0.525 0-0.3-0.22507-0.51459-0.51467-0.51459-0.2624 0-0.52493 0.15833-0.52493 0.54375 0 0.88125 0.97493 1.4521 2.1083 1.4521 1.3043 0 2.2043-0.87083 2.2043-1.8083 0-0.73124-0.6-1.4625-1.6313-1.6792 0.98333-0.35625 1.3396-1.0583 1.3396-1.6313 0-0.73959-0.852-1.2917-1.8937-1.2917-1.0396 0-1.8375 0.50417-1.8375 1.2542 0 0.31875 0.20627 0.49791 0.48747 0.49791 0.29173 0 0.4792-0.21667 0.4792-0.47916 0-0.27084-0.18747-0.46875-0.4792-0.48751 0.3292-0.41249 0.97507-0.51457 1.3229-0.51457 0.4208 0 1.0125 0.20624 1.0125 1.0208 0 0.39375-0.13133 0.825-0.37507 1.1167-0.3104 0.35625-0.57293 0.375-1.0416 0.40208-0.23333 0.01876-0.25213 0.01876-0.3 0.02917-0.0188 0-0.09373 0.01875-0.09373 0.12083 0 0.13125 0.08533 0.13125 0.24373 0.13125h0.50627"/><path d="m42.277 20.588c-0.3708 0.0396-0.72707 0.06453-1.0855 0.14573-3.0208 0.70007-5.2312 3.4834-5.2312 6.7542 0 2.8604 1.7749 5.8146 4.8604 6.675 0.5688 0.17292 1.1792 0.26458 1.7749 0.26458 3.6563 0 6.4772-3.125 6.6084-6.6625v-0.26459c0-3.55-2.6875-6.9125-6.7417-6.9125zm-5.7875 7.1916v-0.18541c0-3.2979 2.3833-6.4771 6.0916-6.4771h0.18547c3.1396 0.14583 5.9083 2.7937 5.9083 6.3833 0 3.2458-2.4771 6.3854-6.1333 6.3854-2.8875 0-5.4041-2.2521-5.9333-5.1396-0.06667-0.31875-0.0792-0.65-0.11867-0.96667"/></g><g transform="translate(59.231 65.457)"><path d="m59.79 29.288v-0.33749h-1.0396v-4.1792c0-0.19791 0-0.26249-0.20627-0.26249-0.11253 0-0.15 0-0.24373 0.13125l-3.1043 4.3104v0.33749h2.7563v0.76876c0 0.31875 0 0.43124-0.75827 0.43124h-0.25413v0.33751c0.46867-0.01875 1.0687-0.03751 1.4061-0.03751 0.348 0 0.948 0.01876 1.4167 0.03751v-0.33751h-0.25413c-0.75827 0-0.75827-0.11249-0.75827-0.43124v-0.76876zm-1.7709-3.7687v3.4313h-2.4749z"/><path d="m57.077 20.588c-0.3708 0.0396-0.72707 0.06453-1.0855 0.14573-3.0208 0.70007-5.2312 3.4834-5.2312 6.7542 0 2.8604 1.7749 5.8146 4.8604 6.675 0.5688 0.17292 1.1792 0.26458 1.7749 0.26458 3.6563 0 6.4772-3.125 6.6084-6.6625v-0.26459c0-3.55-2.6875-6.9125-6.7417-6.9125zm-5.7875 7.1916v-0.18541c0-3.2979 2.3833-6.4771 6.0916-6.4771h0.18547c3.1396 0.14583 5.9083 2.7937 5.9083 6.3833 0 3.2458-2.4771 6.3854-6.1333 6.3854-2.8875 0-5.4041-2.2521-5.9333-5.1396-0.06667-0.31875-0.0792-0.65-0.11867-0.96667"/></g></svg>
