<svg width="210mm" height="100mm" version="1.1" viewBox="0 0 210 100" xmlns="http://www.w3.org/2000/svg">
 <path d="m126.61 8.1813c-0.0565-0.15136-0.0803-0.23159-0.26624-0.23159-0.186 0-0.22064 0.06929-0.27718 0.23159l-2.4016 6.9331c-0.20789 0.59083-0.67107 0.76589-1.2984 0.77684v0.35923c0.26806-0.01095 0.76589-0.03465 1.1835-0.03465 0.35924 0 0.96283 0.0237 1.333 0.03465v-0.35923c-0.5799 0-0.86983-0.28995-0.86983-0.59083 0-0.03465 0.0128-0.15136 0.0237-0.17506l0.53248-1.519h2.8648l0.61454 1.7743c0.0109 0.04741 0.0347 0.11671 0.0347 0.16229 0 0.3483-0.64919 0.3483-0.96283 0.3483v0.35923c0.41759-0.03465 1.2291-0.03465 1.6704-0.03465 0.49783 0 1.0303 0.01095 1.5172 0.03465v-0.35923h-0.20788c-0.69659 0-0.8589-0.08207-0.98471-0.46319zm-0.61454 1.2984 1.3111 3.7674h-2.6095z"/>
 <path d="m85.069 88.962v-2.852c0-0.38293 0.0237-0.46317 0.56894-0.46317h1.4369c1.1252 0 1.53 0.98471 1.53 1.5992 0 0.74219-0.5672 1.716-1.8546 1.716zm2.7371 0.10394c1.1233-0.21882 1.9238-0.961 1.9238-1.8199 0-1.0084-1.0667-1.9585-2.5729-1.9585h-4.2434v0.35925h0.27718c0.89354 0 0.91724 0.12764 0.91724 0.54523v6.1089c0 0.41759-0.0237 0.54524-0.91724 0.54524h-0.27718v0.35923h4.5443c1.5426 0 2.5858-1.0321 2.5858-2.1208 0-1.0102-0.95186-1.8782-2.2375-2.0187zm-0.71845 3.7802h-1.4497c-0.54524 0-0.56894-0.0821-0.56894-0.46318v-3.1657h2.1809c1.1471 0 1.6339 1.0777 1.6339 1.8545 0 0.82423-0.60349 1.7743-1.7961 1.7743"/>
 <path d="m195.3 85.503c0 2.3998 1.8782 4.2197 4.0336 4.2197 1.891 0 3.0271-1.612 3.0271-2.956 0-0.1167 0-0.19694-0.15137-0.19694-0.12768 0-0.12768 0.0693-0.13864 0.18418-0.093 1.6576-1.333 2.6095-2.5967 2.6095-0.70747 0-2.9796-0.39389-2.9796-3.8495 0-3.4666 2.2612-3.8604 2.9669-3.8604 1.2637 0 2.2958 1.0558 2.5274 2.7481 0.0237 0.16231 0.0237 0.19694 0.18603 0.19694 0.18603 0 0.18603-0.0347 0.18603-0.279v-2.7481c0-0.19695 0-0.27719-0.12767-0.27719-0.0474 0-0.093 0-0.18604 0.13859l-0.57991 0.8589c-0.42855-0.41759-1.0193-0.99749-2.1335-0.99749-2.1663 0-4.0336 1.8436-4.0336 4.2087"/>
 <path d="m112.63 85.187v0.35925h0.27718c0.89362 0 0.91545 0.12765 0.91545 0.54524v6.1089c0 0.41758-0.0218 0.54524-0.91545 0.54524h-0.27718v0.35923h4.2416c1.9476 0 3.5486-1.716 3.5486-3.8951 0-2.2028-1.5646-4.0227-3.5486-4.0227zm2.7591 7.5586c-0.54526 0-0.56895-0.0821-0.56895-0.46318v-6.273c0-0.38294 0.0237-0.46318 0.56895-0.46318h1.158c0.72031 0 1.5191 0.2553 2.1098 1.0777 0.49962 0.68383 0.60361 1.6813 0.60361 2.5858 0 1.2874-0.22069 1.9822-0.63827 2.5511-0.23154 0.31182-0.89164 0.98472-2.0624 0.98472h-1.1707"/>
 <path d="m7.789 90.208c0 0.41759-0.023694 0.54524-0.91731 0.54524h-0.27718v0.35923h6.6888l0.48689-2.9906h-0.29001c-0.2899 1.7852-0.5561 2.6314-2.5492 2.6314h-1.5427c-0.54525 0-0.56895-0.0821-0.56895-0.46319v-3.0964h1.0449c1.1233 0 1.251 0.37201 1.251 1.3567h0.2899v-3.0727h-0.2899c0 0.99748-0.12768 1.3567-1.251 1.3567h-1.0449v-2.7827c0-0.38294 0.023694-0.46318 0.56895-0.46318h1.4952c1.7743 0 2.0861 0.63824 2.2722 2.2484h0.2899l-0.32456-2.6077h-6.5265v0.35923h0.27718c0.89362 0 0.91731 0.12765 0.91731 0.54524v6.0742"/>
 <path d="m122.13 72.122h1.9603c1.3914 0 2.6422-0.93913 2.6422-2.0989 0-1.1361-1.147-2.1554-2.7353-2.1554h-4.0921v0.35924h0.27718c0.89363 0 0.91545 0.12765 0.91545 0.54523v6.1089c0 0.41759-0.0218 0.54525-0.91545 0.54525h-0.27718v0.35924c0.40486-0.0347 1.262-0.0347 1.7032-0.0347s1.3093 0 1.7159 0.0347v-0.35924h-0.27892c-0.89175 0-0.91545-0.12766-0.91545-0.54525zm-0.0347-0.3009v-3.131c0-0.38293 0.0237-0.46317 0.56894-0.46317h1.0303c1.8436 0 1.8436 1.2291 1.8436 1.7962 0 0.54524 0 1.798-1.8436 1.798h-1.5992"/>
 <path d="m158.43 44.632c-0.62543-0.23158-1.9238-1.0777-1.9238-3.7437 0-3.0143 1.6229-3.9534 2.6897-3.9534 1.1233 0 2.7007 0.99748 2.7007 3.9534 0 0.90448-0.13865 2.5384-1.3677 3.4428-0.25536-0.64918-0.62555-1.2291-1.3112-1.2291-0.59077 0-0.94999 0.49782-0.94999 0.97377 0 0.31365 0.15137 0.5343 0.16222 0.55618zm1.7981-0.11488c-0.39575 0.21882-0.76594 0.26623-1.0212 0.26623-0.59089 0-0.68391-0.5343-0.68391-0.70754 0-0.33553 0.24439-0.71847 0.69476-0.71847 0.6273 0 0.88266 0.48688 1.0103 1.1598zm0.47406 0.21882c1.3677-0.61271 2.3542-2.0971 2.3542-3.8477 0-2.3651-1.7506-4.2434-3.8604-4.2434-2.0752 0-3.8494 1.8546-3.8494 4.2434 0 2.3414 1.7506 4.185 3.8604 4.185 0.35922 0 0.76583-0.0693 1.1014-0.17324 0.17331 1.0996 0.33553 2.1664 1.4151 2.1664 1.1816 0 1.4023-1.5409 1.4023-2.1317 0-0.11671 0-0.24436-0.12767-0.24436-0.10398 0-0.11671 0.09301-0.12768 0.20971-0.0692 0.62548-0.5561 0.97378-1.054 0.97378-0.54526 0-0.83516-0.39572-1.1142-1.1379"/>
 <path d="m94.973 54.528v-3.0034c0-0.26623 0-0.40482 0.25535-0.43947 0.11671-0.0237 0.45224-0.0237 0.68378-0.0237 1.043 0 2.3414 0.04559 2.3414 1.7269 0 0.80054-0.27718 1.7397-1.9931 1.7397zm2.4472 0.14952c1.1233-0.27718 2.0278-0.98471 2.0278-1.8892 0-1.1124-1.3221-2.0861-3.0253-2.0861h-3.6398v0.35925h0.27717c0.89363 0 0.91545 0.12764 0.91545 0.54523v6.1089c0 0.41759-0.02179 0.54524-0.91545 0.54524h-0.27717v0.35923c0.41582-0.0347 1.24-0.0347 1.6922-0.0347 0.45224 0 1.2747 0 1.6922 0.0347v-0.35923h-0.27892c-0.89176 0-0.91545-0.12765-0.91545-0.54524v-2.9323h1.333c0.18604 0 0.67293 0 1.0777 0.39389 0.44139 0.41759 0.44139 0.77682 0.44139 1.5537 0 0.75311 0 1.2163 0.47593 1.6576 0.47406 0.41759 1.1123 0.48689 1.4606 0.48689 0.90448 0 1.1015-0.95007 1.1015-1.2747 0-0.0711 0-0.19876-0.15137-0.19876-0.12768 0-0.12768 0.10576-0.13864 0.186-0.0692 0.82423-0.47594 1.0321-0.76584 1.0321-0.56707 0-0.66009-0.59082-0.82243-1.6685l-0.15137-0.92818c-0.20786-0.74219-0.7768-1.1251-1.4132-1.3458"/>
 <g fill="none" stroke="#000" stroke-linecap="square" stroke-miterlimit="2" stroke-width=".5">
  <path d="m193.48 82.901h-106.81l39.674-64.089z" style="paint-order:markers stroke fill"/>
  <path d="m126.34 18.813-9.1555 64.089" style="paint-order:markers stroke fill"/>
  <path d="m86.663 82.901 69.328-35.772" style="paint-order:markers stroke fill"/>
  <path d="m193.48 82.901-93.506-21.454" style="paint-order:markers stroke fill"/>
  <path d="m155.99 47.129-140.54 35.772h71.209" style="paint-order:markers stroke fill"/>
 </g>
 <path d="m15.45 82.901 110.89-64.089" fill="none" stroke="#000" stroke-linecap="square" stroke-miterlimit="2" stroke-width=".5" style="paint-order:markers stroke fill"/>
</svg>
