<svg version="1.1" viewBox="0 0 230.67 421.33" xmlns="http://www.w3.org/2000/svg" xmlns:xlink="http://www.w3.org/1999/xlink">
 <defs>
  <pattern id="pattern23" patternTransform="matrix(.35355 -.35355 .35355 .35355 0 0)" preserveAspectRatio="xMidYMid" xlink:href="#Strips1_3"/>
  <pattern id="pattern22" patternTransform="matrix(.35355 -.35355 .35355 .35355 0 0)" preserveAspectRatio="xMidYMid" xlink:href="#Strips1_3"/>
  <pattern id="Strips1_3" width="4" height="1" fill="#000000" patternTransform="translate(0) scale(2)" patternUnits="userSpaceOnUse" preserveAspectRatio="xMidYMid">
   <rect y="-.5" width="1" height="2"/>
  </pattern>
  <clipPath id="clipPath8">
   <path transform="translate(0,-2.5e-5)" d="m0 0h1701v3119h-1701z"/>
  </clipPath>
  <clipPath id="clipPath10">
   <path transform="translate(0,-2.5e-5)" d="m0 0h1701v3119h-1701z"/>
  </clipPath>
  <clipPath id="clipPath12">
   <path transform="translate(0,-2.5e-5)" d="m0 0h1701v3119h-1701z"/>
  </clipPath>
 </defs>
 <path d="m-0.053646 345.73h223.72" fill="none" stroke="#000" stroke-miterlimit="10" stroke-width=".79701"/>
 <path d="m226.72 345.73-4.888-2.4443 1.8333 2.4443-1.8333 2.4443"/>
 <path d="m227.36 336.93c0.0813-0.34373 0.38534-1.5625 1.3133-1.5625 0.0667 0 0.38266 0 0.66133 0.1708-0.37067 0.0667-0.63467 0.398-0.63467 0.71667 0 0.21053 0.144 0.46253 0.50134 0.46253 0.292 0 0.71466-0.23747 0.71466-0.76667 0-0.6896-0.78133-0.87493-1.2307-0.87493-0.76934 0-1.2307 0.702-1.3893 1.0063-0.332-0.87294-1.048-1.0063-1.432-1.0063-1.376 0-2.1333 1.7083-2.1333 2.0396 0 0.13333 0.13333 0.13333 0.16133 0.13333 0.10534 0 0.14534-0.0272 0.17067-0.14586 0.452-1.4041 1.3253-1.7355 1.7747-1.7355 0.252 0 0.71733 0.1188 0.71733 0.88747 0 0.41053-0.22533 1.298-0.71733 3.1521-0.21067 0.8208-0.67467 1.3771-1.2587 1.3771-0.0787 0-0.38267 0-0.66267-0.17294 0.332-0.0645 0.624-0.34373 0.624-0.71453 0-0.3584-0.292-0.46253-0.49066-0.46253-0.39734 0-0.728 0.34373-0.728 0.76666 0 0.6104 0.66133 0.87507 1.2453 0.87507 0.87467 0 1.3493-0.92707 1.392-1.0063 0.15733 0.4896 0.63467 1.0063 1.4293 1.0063 1.364 0 2.1187-1.7084 2.1187-2.0396 0-0.13333-0.11867-0.13333-0.15867-0.13333-0.11866 0-0.14666 0.0541-0.17333 0.14586-0.43467 1.4167-1.3373 1.7353-1.76 1.7353-0.51733 0-0.72933-0.42294-0.72933-0.87494 0-0.2896 0.0787-0.58133 0.22533-1.1647l0.44933-1.8145"/>
 <path d="m113.33 421.32v-412.7" fill="none" stroke="#000" stroke-miterlimit="10" stroke-width=".79701"/>
 <path d="m113.33 5.572-2.4443 4.888 2.4443-1.8333 2.4443 1.8333"/>
 <path d="m107.9 2.1547c0.0521-0.18533 0.0521-0.21333 0.0521-0.30533 0-0.23867-0.18546-0.35733-0.38333-0.35733-0.13333 0-0.34373 0.078667-0.46453 0.27733-0.0251 0.066667-0.13134 0.476-0.18547 0.716-0.0917 0.344-0.18547 0.70267-0.26453 1.0587l-0.59587 2.3853c-0.0521 0.19733-0.62293 1.1253-1.4959 1.1253-0.67706 0-0.8208-0.584-0.8208-1.0733 0-0.608 0.22494-1.432 0.67494-2.596 0.2104-0.544 0.26466-0.68933 0.26466-0.95467 0-0.59467-0.42506-1.0853-1.0855-1.0853-1.2583 0-1.75 1.9213-1.75 2.04 0 0.13333 0.13333 0.13333 0.1604 0.13333 0.13133 0 0.14586-0.026667 0.2104-0.24 0.3584-1.2427 0.8876-1.6413 1.3376-1.6413 0.10613 0 0.3312 0 0.3312 0.42267 0 0.332-0.1312 0.676-0.22507 0.928-0.52907 1.404-0.76667 2.16-0.76667 2.7813 0 1.1787 0.83334 1.576 1.6147 1.576 0.51667 0 0.96667-0.224 1.3375-0.596-0.1708 0.688-0.3312 1.3387-0.8604 2.04-0.34374 0.45067-0.84787 0.83333-1.4563 0.83333-0.18547 0-0.7812-0.04-1.0063-0.556 0.2104 0 0.38334 0 0.5688-0.15867 0.13334-0.11867 0.26454-0.292 0.26454-0.544 0-0.40933-0.35827-0.46133-0.4896-0.46133-0.30414 0-0.7416 0.212-0.7416 0.86 0 0.66267 0.58333 1.152 1.4041 1.152 1.3645 0 2.7271-1.204 3.0979-2.7027l1.2729-5.0573"/>
 <g fill="none" stroke="#000" stroke-miterlimit="10" stroke-width="3.985">
  <path transform="matrix(.13333 0 0 -.13333 0 421.33)" d="m-567.34-34866 28.629 2104.1 28.629 2019.2 28.629 1935.9 28.633 1854.4 28.629 1774.7 28.628 1696.7 28.629 1620.5 28.629 1546 28.633 1473.2 28.629 1402.3 28.629 1333.1 28.629 1265.5 28.633 1199.9 28.629 1135.9 28.628 1073.7 28.629 1013.2 28.629 954.51 28.629 897.56 28.633 842.35 28.629 788.89 28.629 737.19 28.629 687.25 28.629 639.04 28.632 592.6 28.629 547.92 28.629 504.96 28.629 463.78 28.629 424.34 28.633 386.67 28.629 350.72 28.629 316.55 28.629 284.13 28.629 253.44 28.632 224.53 28.629 197.36 28.629 171.94 28.629 148.27 28.629 126.36 28.633 106.2 28.629 87.786 28.629 71.132 28.628 56.231 28.629 43.074 28.633 31.676 28.629 22.027 28.629 14.133 28.629 7.988 28.629 3.598 28.633 0.961 28.629 0.07 28.628 0.938 28.629 3.554 28.629 7.926 28.633 14.047 28.626 21.926 28.63 31.551 28.63 42.929 28.63 56.063 28.63 70.941 28.63 87.578 28.63 105.97 28.63 126.11 28.63 148 28.63 171.64 28.63 197.04 28.63 224.2 28.63 253.1 28.63 283.74 28.63 316.15 28.63 350.31 28.63 386.23 28.63 423.88 28.63 463.3 28.63 504.46 28.63 547.4 28.63 592.05 28.62 638.48 28.63 686.66 28.64 736.58 28.63 788.26 28.62 841.71 28.63 896.84 28.63 953.9 28.63 1012.5 28.63 1072.9 28.63 1135.2 28.63 1199.1 28.63 1264.7 28.63 1332.3 28.63 1401.4 28.63 1472.4 28.63 1545.1 28.63 1619.6 28.63 1695.8 28.63 1773.7 28.63 1853.5 28.63 1934.9 28.63 2018.2 28.63 2103.1" clip-path="url(#clipPath8)"/>
  <path transform="matrix(.13333 0 0 -.13333 0 421.33)" d="m-567.34 21827 28.629-850.2 28.629-832.9 28.629-815.5 28.633-798.2 28.629-780.8 28.628-763.5 28.629-746.1 28.629-728.7 28.633-711.5 28.629-694 28.629-676.8 28.629-659.3 28.633-642.1 28.629-624.6 28.628-607.4 28.629-589.9 28.629-572.67 28.629-555.29 28.633-537.93 28.629-520.57 28.629-503.24 28.629-485.88 28.629-468.53 28.632-451.18 28.629-433.85 28.629-416.48 28.629-399.13 28.629-381.78 28.633-364.45 28.629-347.09 28.629-329.73 28.629-312.39 28.629-295.04 28.632-277.69 28.629-260.35 28.629-242.99 28.629-225.64 28.629-208.3 28.633-190.94 28.629-173.6 28.629-156.24 28.628-138.9 28.629-121.55 28.633-104.2 28.629-86.848 28.629-69.5 28.629-52.152 28.629-34.801 28.633-17.453 28.629-0.102 28.628 17.242 28.629 34.594 28.629 51.945 28.633 69.293 28.626 86.641 28.63 103.99 28.63 121.34 28.63 138.69 28.63 156.04 28.63 173.39 28.63 190.75 28.63 208.08 28.63 225.44 28.63 242.78 28.63 260.13 28.63 277.49 28.63 294.84 28.63 312.18 28.63 329.53 28.63 346.88 28.63 364.24 28.63 381.57 28.63 398.93 28.63 416.27 28.63 433.64 28.63 450.97 28.62 468.32 28.63 485.69 28.64 503.02 28.63 520.36 28.62 537.74 28.63 555.07 28.63 572.4 28.63 589.8 28.63 607.1 28.63 624.5 28.63 641.8 28.63 659.2 28.63 676.5 28.63 693.8 28.63 711.3 28.63 728.5 28.63 745.9 28.63 763.3 28.63 780.6 28.63 798 28.63 815.3 28.63 832.6 28.63 850.1" clip-path="url(#clipPath10)"/>
  <path transform="matrix(.13333 0 0 -.13333 0 421.33)" d="m-567.34-3118.1 236.23 708.68 354.34 1063 472.45 1417.4 118.11 354.34 118.11 354.34 118.11 354.34 118.11 354.34 118.11 354.34 118.12 354.34 118.11 354.34 118.11 354.33 118.12 354.34 236.22 708.68 118.12 354.34 236.22 708.68" clip-path="url(#clipPath12)"/>
 </g>
 <path d="m81.293 367.45c0.05798-0.15732 3.3884-10.142 7.4009-22.189 4.0125-12.047 7.366-21.829 7.4523-21.739 0.08622 0.09 0.92282 2.0227 1.8591 4.2947 3.3891 8.2242 7.4997 14.498 10.827 16.524l1.5301 0.93197-1.0044 0.12334c-0.5524 0.0678-1.8282 0.18196-2.835 0.25359-2.7046 0.19241-6.3273 1.1735-8.6914 2.3537-5.5431 2.7673-10.874 8.7654-14.86 16.722-0.82994 1.6562-1.5707 3.0113-1.6462 3.0113-0.0755 0-0.08982-0.12872-0.03184-0.28605z" fill="url(#pattern22)" stroke-dasharray="0.686508, 0.686508" stroke-linecap="square" stroke-linejoin="round" stroke-miterlimit="2.8" stroke-width=".22884" style="paint-order:markers stroke fill"/>
 <path d="m120.76 341.98c15.332-16.699 31.333-93.228 46.563-222.69l1.6904-14.37 9.2929-27.701c5.1111-15.236 9.3147-27.264 9.3413-26.73 0.0266 0.53398-0.97148 12.184-2.218 25.89-12.419 136.54-25.144 212.87-41.079 246.4-3.67 7.7224-5.9945 11.257-10.107 15.369-3.4174 3.4173-5.6939 4.7354-10.298 5.9622-5.8857 1.5684-6.3146 1.2825-3.1866-2.1245z" fill="url(#pattern23)" stroke-dasharray="1.94174, 1.94174" stroke-linecap="square" stroke-linejoin="round" stroke-miterlimit="2.8" stroke-width=".64725" style="paint-order:markers stroke fill"/>
</svg>
